<?xml version="1.0" encoding="UTF-8"?>
<!-- Generator: Adobe Illustrator 27.5.0, SVG Export Plug-In . SVG Version: 6.00 Build 0)  -->
<svg xmlns="http://www.w3.org/2000/svg" xmlns:xlink="http://www.w3.org/1999/xlink" version="1.1" x="0px" y="0px" viewBox="0 0 565.9 149.5" style="enable-background:new 0 0 565.9 149.5;" xml:space="preserve">
<style type="text/css">
	.st0{fill:#FFFFFF;}
	.st1{fill:none;stroke:#FFFFFF;stroke-width:1.03;stroke-miterlimit:10;}
	.st2{fill:none;stroke:#FFFFFF;stroke-width:1.06;stroke-miterlimit:10;}
	.st3{fill:none;stroke:#FFFFFF;stroke-width:1.02;stroke-miterlimit:10;}
	.st4{fill:none;stroke:#FFFFFF;stroke-width:0.99;stroke-miterlimit:10;}
	.st5{fill:#6BBF4E;}
	.st6{fill:#8DC63F;}
	.st7{fill:none;stroke:#8DC63F;stroke-width:1.03;stroke-miterlimit:10;}
	.st8{fill:none;stroke:#8DC63F;stroke-width:1.06;stroke-miterlimit:10;}
	.st9{fill:none;stroke:#8DC63F;stroke-width:1.02;stroke-miterlimit:10;}
	.st10{fill:none;stroke:#8DC63F;stroke-width:0.99;stroke-miterlimit:10;}
</style>
<g id="Layer_1">
	<path class="st6" d="M16.9,60C7.6,60,0,67.8,0,77.5C-0.1,84.8,4.3,91.3,11,94v48.8h4.6c-1.1,0.5-1.9,1.5-2,2.6   c0,2.3,3.8,4.1,8.4,4.1s8.4-1.9,8.4-4.1c0-0.7-0.4-1.4-0.9-1.8v-0.8h4V80.1c0.1-0.8,0.2-1.7,0.2-2.5C33.8,67.8,26.3,60,16.9,60z"></path>
	<rect x="39.1" y="105.8" class="st6" width="66.9" height="35.7"></rect>
	<path class="st6" d="M38.5,83.2c-3.9,8.1,0.2,19.2,0.2,19.2h66.9c0,0,4.5-12.8,0.3-19C91.4,81.2,62.5,79,38.5,83.2z"></path>
	<path class="st6" d="M127.9,60c-9.4,0-16.9,7.8-16.9,17.6c0,0.8,0.1,1.7,0.2,2.5v62.7h4.1v0.5c-0.7,0.5-1.2,1.3-1.2,2.1   c0,2.3,3.8,4.1,8.4,4.1s8.4-1.9,8.4-4.1c-0.1-1.1-0.8-2-1.7-2.5v-0.1h4.7V94c6.7-2.7,11.1-9.2,11-16.4   C144.8,67.8,137.2,60,127.9,60z"></path>
	<path class="st6" d="M193.5,85.8c0-4.1-0.1-4.7-2.2-5.1c-0.6-0.1-1.2-0.1-1.8-0.1c-0.2,0-0.4-0.2-0.4-0.4c0-0.4,0.2-0.4,0.8-0.4   c2.4,0,5.8,0.1,6.1,0.1s3.5-0.1,5.1-0.1c0.6,0,0.8,0.1,0.8,0.4c0,0.2-0.2,0.4-0.4,0.4c-0.4,0-0.9,0-1.3,0.1c-1.4,0.2-1.8,1-1.9,2.8   c-0.1,1.6-0.1,3.1-0.1,5.2v5.6c0,2.3-0.1,2.4-0.7,2.7c-3.3,1.7-8,2.2-11,2.2c-4,0-11.3-0.5-17.1-5.4c-4-3.7-6.2-8.8-6.2-14.3   c0-8,4.1-13.7,8.7-16.5c4.6-2.8,9.8-3.2,13.8-3.2c2.7,0,5.4,0.3,8,0.8c1.4,0.3,2.8,0.5,4.2,0.5c0.5,0,0.6,0.2,0.6,0.5   c0,0.7-0.3,2.1-0.3,7.1c0,0.8-0.2,1.1-0.6,1.1s-0.4-0.3-0.4-0.8c-0.1-1.2-0.5-2.3-1.2-3.3c-1.3-1.9-5.2-3.9-12-3.9   c-3.1,0-6.9,0.2-10.9,3.2c-3,2.3-5.1,6.8-5.1,12.6c0,5.2,1.9,10.1,5.5,13.8c3.5,3.5,8.3,5.3,13.3,5.2c1.8,0,4.2-0.2,5.6-0.9   c0.6-0.4,1.1-0.6,1.1-1.5L193.5,85.8z"></path>
	<path class="st6" d="M213.8,75.2c0-7.8,0-9.2-0.1-10.8c-0.1-1.6-0.4-2.5-2.1-2.8c-0.6-0.1-1.2-0.1-1.8-0.1c-0.2,0-0.4-0.2-0.4-0.4   c0-0.3,0.2-0.4,0.8-0.4c2.4,0,5.8,0.1,6.1,0.1c0.5,0,4.9-0.1,6.5-0.1c3.3,0,7,0.3,9.7,2.2c2.2,1.6,3.5,4.1,3.6,6.8   c0,3.7-1.5,7.3-6.4,11.4c4.2,5.3,7.8,9.8,10.9,13c2.8,2.8,4.5,3.3,5.8,3.5c0.6,0.1,1.2,0.2,1.8,0.2c0.2,0,0.4,0.2,0.5,0.4   c0,0.3-0.3,0.4-1.2,0.4h-3.2c-3,0-4.2-0.3-5.5-1c-2.2-1.2-4.1-3.6-7.1-7.4c-2.2-2.7-4.5-6-5.6-7.3c-0.2-0.2-0.4-0.3-0.7-0.3   l-6.6-0.1c-0.2,0-0.4,0.1-0.4,0.4V84c0,4.8,0,8.7,0.2,10.8c0.2,1.5,0.5,2.4,2.1,2.7c0.8,0.1,1.5,0.2,2.3,0.2c0.2,0,0.4,0.1,0.4,0.3   v0.1c0,0.2-0.2,0.4-0.8,0.4c-2.8,0-6.1-0.2-6.4-0.2c-0.1,0-3.5,0.2-5.1,0.2c-0.5,0-0.8-0.1-0.8-0.4c0-0.2,0.2-0.4,0.4-0.4l0,0   c0.5,0,1.1-0.1,1.6-0.2c1-0.2,1.1-1.2,1.4-2.7c0.3-3.6,0.4-7.2,0.3-10.8L213.8,75.2z M218.3,79.4c0,0.3,0.1,0.5,0.4,0.6   c1.9,0.6,3.8,0.8,5.7,0.8c1.4,0.1,2.7-0.2,3.9-0.9c1.8-1.2,3.1-3.8,3.1-7.7c0-6.2-3.4-9.9-9-9.9c-1.2,0-2.5,0.1-3.7,0.3   c-0.2,0.1-0.4,0.3-0.4,0.6V79.4z"></path>
	<path class="st6" d="M253.4,75.2c0-7.8,0-9.2-0.1-10.8c-0.1-1.6-0.4-2.5-2.1-2.8c-0.6-0.1-1.2-0.1-1.8-0.1c-0.2,0-0.4-0.2-0.4-0.4   c0-0.3,0.2-0.4,0.8-0.4c2.4,0,5.7,0.1,6,0.1c0.3,0,11.2,0.1,12.4,0c1-0.1,2-0.2,2.4-0.3c0.2-0.1,0.5-0.2,0.7-0.2s0.2,0.2,0.2,0.5   s-0.3,0.9-0.4,2.4c-0.1,0.5-0.2,2.7-0.3,3.3c-0.1,0.2-0.2,0.5-0.5,0.5s-0.4-0.2-0.4-0.7c0-0.6-0.1-1.2-0.3-1.8   c-0.4-0.8-0.9-1.2-3.7-1.5c-0.9-0.1-6.9-0.2-7.5-0.2c-0.2,0-0.3,0.2-0.3,0.5v13.6c0,0.4,0,0.5,0.3,0.5c0.6,0,7.5,0,8.7-0.1   s2-0.2,2.5-0.7c0.4-0.4,0.6-0.7,0.8-0.7s0.3,0.1,0.3,0.4s-0.3,1.1-0.4,2.8c-0.1,1-0.2,2.9-0.2,3.2s-0.1,0.9-0.5,0.9   s-0.4-0.2-0.4-0.5c0-0.6-0.1-1.1-0.2-1.7c-0.2-0.7-0.6-1.3-2.6-1.5c-1.4-0.2-7-0.2-7.8-0.2c-0.3,0-0.4,0.2-0.4,0.4v4.2   c0,1.7-0.1,7.6,0,8.6c0.1,3.4,1.1,4,6.2,4c1.7,0.1,3.5-0.1,5.2-0.5c1.4-0.6,2.1-1.5,2.4-3.5c0.1-0.6,0.2-0.8,0.5-0.8   s0.4,0.4,0.4,0.8c-0.1,1.6-0.4,3.2-0.7,4.8c-0.4,1.3-0.9,1.3-2.9,1.3c-3.9,0-6.9-0.1-9-0.2s-3.5-0.1-4.3-0.1c-0.1,0-1.1,0-2.2,0.1   s-2.2,0.1-3,0.1c-0.5,0-0.8-0.1-0.8-0.4c0-0.2,0.2-0.4,0.4-0.4l0,0c0.5-0.1,1.1-0.1,1.6-0.2c1-0.2,1.1-1.2,1.4-2.6   c0.3-3.6,0.4-7.2,0.3-10.9L253.4,75.2z"></path>
	<path class="st6" d="M285.9,75.2c0-7.8,0-9.2-0.1-10.8c-0.1-1.6-0.4-2.5-2.1-2.8c-0.6-0.1-1.2-0.1-1.8-0.1c-0.2,0-0.4-0.2-0.4-0.4   c0-0.3,0.2-0.4,0.8-0.4c2.4,0,5.7,0.1,6,0.1s11.2,0.1,12.4,0c1-0.1,1.9-0.2,2.4-0.3c0.2-0.1,0.5-0.2,0.7-0.2s0.2,0.2,0.2,0.5   c-0.2,0.8-0.3,1.6-0.4,2.4c-0.1,0.5-0.2,2.7-0.3,3.3c-0.1,0.2-0.2,0.5-0.5,0.5s-0.4-0.2-0.4-0.7c0-0.6-0.1-1.2-0.3-1.8   c-0.4-0.8-0.9-1.2-3.7-1.5c-0.9-0.1-6.9-0.2-7.5-0.2c-0.2,0-0.3,0.2-0.3,0.5v13.6c0,0.4,0,0.5,0.3,0.5c0.6,0,7.5,0,8.7-0.1   s2-0.2,2.5-0.7c0.4-0.4,0.6-0.7,0.8-0.7s0.3,0.1,0.3,0.4s-0.3,1.1-0.4,2.8c-0.1,1-0.2,2.9-0.2,3.2s-0.1,0.9-0.5,0.9   s-0.4-0.2-0.4-0.5c0-0.6-0.1-1.1-0.2-1.7c-0.2-0.7-0.6-1.3-2.6-1.5c-1.4-0.2-7-0.2-7.8-0.2c-0.3,0-0.4,0.2-0.4,0.4v4.2   c0,1.7,0,7.6,0,8.6c0.1,3.4,1.1,4,6.2,4c1.7,0.1,3.5-0.1,5.2-0.5c1.4-0.6,2.1-1.5,2.4-3.5c0.1-0.6,0.2-0.8,0.5-0.8s0.4,0.4,0.4,0.8   c-0.1,1.6-0.4,3.2-0.7,4.8c-0.4,1.3-0.9,1.3-2.9,1.3c-3.9,0-6.9-0.1-9-0.2s-3.5-0.1-4.3-0.1c-0.1,0-1.1,0-2.2,0.1s-2.2,0.1-3,0.1   c-0.5,0-0.8-0.1-0.8-0.4c0-0.2,0.2-0.4,0.4-0.4l0,0c0.5-0.1,1.1-0.1,1.6-0.2c1-0.2,1.1-1.2,1.4-2.6c0.3-3.6,0.4-7.2,0.3-10.9   L285.9,75.2z"></path>
	<path class="st6" d="M320.6,91.7c0.1,4.1,0.6,5.4,2,5.7c0.8,0.2,1.7,0.3,2.6,0.3c0.2,0,0.4,0.2,0.4,0.4l0,0c0,0.3-0.4,0.4-0.9,0.4   c-3,0-5-0.2-5.5-0.2s-2.7,0.2-5,0.2c-0.5,0-0.8-0.1-0.8-0.4c0-0.2,0.2-0.4,0.4-0.4l0,0c0.7,0,1.4-0.1,2.1-0.3   c1.3-0.3,1.5-1.7,1.5-6.2V62.5c0-2,0.3-2.5,0.7-2.5c0.6,0,1.5,1,2,1.5c0.8,0.8,8.4,8.8,16.4,17.1c5.1,5.3,10.7,11.3,12.3,12.9   l-0.5-25.1c-0.1-3.2-0.4-4.4-2-4.7c-0.8-0.1-1.7-0.2-2.5-0.2c-0.4,0-0.4-0.3-0.4-0.5s0.4-0.3,1-0.3c2.4,0,4.8,0.1,5.4,0.1   s2.3-0.1,4.4-0.1c0.5,0,0.9,0.1,0.9,0.3c0,0.3-0.3,0.5-0.6,0.5c-0.4,0-0.8,0-1.2,0.1c-1.7,0.4-1.8,1.4-1.8,4.4l-0.1,29.4   c0,3.3-0.1,3.6-0.4,3.6c-0.5,0-1.1-0.4-4-3.1c-0.5-0.5-8-7.8-13.5-13.6c-6-6.3-11.9-12.4-13.5-14.2L320.6,91.7z"></path>
	<path class="st6" d="M381.2,93.9c-5.1-4.4-6.3-10.1-6.3-14.9c0.1-5.1,2.2-10.1,5.8-13.7c3.1-3,7.8-5.4,15.8-5.4   c2.5,0,5.1,0.2,7.5,0.6c1.7,0.4,3.5,0.6,5.3,0.8c0.5,0,0.6,0.2,0.6,0.5s-0.1,1-0.2,2.8c-0.1,1.6-0.1,4.4-0.1,5.1   c-0.1,0.7-0.3,1.1-0.6,1.1s-0.4-0.3-0.4-1.1c0-1.9-0.8-3.7-2.2-5c-1.8-1.5-5.6-2.7-10.2-2.7c-6.7,0-9.8,1.8-11.7,3.5   c-3.8,3.5-4.7,8-4.7,13.1c0,10.1,8.2,18.2,18.3,18.2c0.1,0,0.3,0,0.4,0c3.9,0,6.5-0.3,8.5-2.4c1-1.2,1.7-2.6,2-4.2   c0.1-0.5,0.2-0.7,0.5-0.7s0.5,0.3,0.5,0.7c-0.3,2.2-0.7,4.3-1.2,6.4c-0.3,0.9-0.4,1.1-1.3,1.5c-2.1,0.8-6,1.1-9.4,1.1   C390.6,99.2,385.3,97.4,381.2,93.9z"></path>
	<path class="st6" d="M454.2,84.1c0,4.8,0.1,8.8,0.3,10.8c0.2,1.5,0.3,2.4,1.9,2.7c0.8,0.1,1.5,0.2,2.3,0.2c0.2,0,0.4,0.1,0.5,0.4   l0,0c0,0.2-0.3,0.4-0.9,0.4c-2.8,0-6.1-0.2-6.4-0.2s-3.6,0.2-5.1,0.2c-0.6,0-0.8-0.1-0.8-0.4c0-0.2,0.2-0.4,0.4-0.4l0,0   c0.5,0,1-0.1,1.5-0.2c1.1-0.2,1.2-1.2,1.4-2.7c0.2-2.1,0.2-5.8,0.2-10.7v-5c0-0.2-0.1-0.3-0.3-0.3h-21.6c-0.2,0-0.3,0.1-0.3,0.3v5   c0,4.8,0,8.7,0.2,10.7c0.2,1.5,0.4,2.4,1.9,2.6c0.8,0.1,1.6,0.2,2.4,0.2c0.2,0,0.4,0.2,0.4,0.4l0,0c0,0.2-0.2,0.4-0.8,0.4   c-2.9,0-6.2-0.2-6.4-0.2s-3.6,0.2-5.2,0.2c-0.5,0-0.8-0.1-0.8-0.4c0-0.2,0.2-0.4,0.4-0.4l0,0c0.5,0,1.1-0.1,1.6-0.2   c1-0.2,1.1-1.2,1.4-2.6c0.3-3.6,0.4-7.2,0.3-10.9v-8.9c0-7.8,0-9.2-0.1-10.8c-0.1-1.6-0.4-2.5-2.1-2.8c-0.6-0.1-1.2-0.1-1.8-0.1   c-0.2,0-0.4-0.2-0.4-0.4c0-0.3,0.2-0.4,0.8-0.4c2.4,0,5.7,0.1,6,0.1s3.5-0.1,5.1-0.1c0.6,0,0.8,0.1,0.8,0.4c0,0.2-0.2,0.4-0.4,0.4   c-0.4,0-0.9,0-1.3,0.1c-1.4,0.3-1.7,1-1.8,2.8c-0.1,1.6-0.1,3.1-0.1,10.9v1.1c0,0.3,0.1,0.3,0.3,0.3h21.6c0.2,0,0.3,0,0.3-0.3v-1.1   c0-7.8-0.1-9.3-0.1-10.9c-0.1-1.6-0.4-2.5-2.1-2.8c-0.6-0.1-1.2-0.1-1.8-0.1c-0.2,0-0.4-0.2-0.4-0.4c0-0.3,0.2-0.4,0.8-0.4   c2.3,0,5.7,0.1,5.9,0.1s3.6-0.1,5.1-0.1c0.6,0,0.9,0.1,0.9,0.4c0,0.2-0.2,0.4-0.5,0.4c-0.4,0-0.9,0-1.3,0.1c-1.4,0.3-1.7,1-1.8,2.8   c-0.1,1.6-0.1,3-0.1,10.8V84.1z"></path>
	<path class="st6" d="M480.4,61.7c0.6-1.7,0.9-1.9,1.2-1.9c0.5,0,0.7,0.7,1.2,1.8c0.9,2.1,9.2,22.8,12.4,30.4   c1.9,4.5,3.3,5.1,4.4,5.5c0.7,0.2,1.4,0.3,2.1,0.3c0.3,0,0.7,0.1,0.7,0.4s-0.6,0.4-1.2,0.4c-0.8,0-4.6,0-8.2-0.1   c-1-0.1-1.8-0.1-1.8-0.4s0.1-0.2,0.4-0.3c0.5-0.2,0.7-0.7,0.5-1.2c0-0.1,0-0.1-0.1-0.1L487.4,85c-0.1-0.2-0.2-0.3-0.5-0.3h-12   c-0.3,0-0.5,0.2-0.5,0.4l-3,8c-0.4,1.1-0.7,2.2-0.8,3.4c0,1,0.9,1.4,1.8,1.4h0.5c0.4,0,0.5,0.2,0.5,0.4s-0.3,0.4-0.8,0.4   c-1.2,0-4.1-0.2-4.7-0.2s-3.1,0.2-5.2,0.2c-0.6,0-1-0.1-1-0.4c0-0.2,0.2-0.4,0.5-0.4c0.5,0,1-0.1,1.5-0.1c2.4-0.3,3.4-2.1,4.4-4.6   L480.4,61.7z M486.2,82.5c0.2,0,0.2-0.1,0.2-0.3l-5.1-13.7c-0.3-0.8-0.6-0.8-0.9,0l-4.8,13.7c-0.1,0.2,0,0.3,0.2,0.3H486.2z"></path>
	<path class="st6" d="M514,84.1c0,4.8,0,8.8,0.2,10.8c0.2,1.5,0.3,2.4,1.9,2.7c0.8,0.1,1.6,0.2,2.4,0.2c0.2,0,0.4,0.2,0.4,0.4l0,0   c0,0.2-0.2,0.4-0.8,0.4c-2.9,0-6.3-0.2-6.5-0.2s-3.5,0.2-5.1,0.2c-0.5,0-0.8-0.1-0.8-0.4c0-0.2,0.2-0.4,0.4-0.4l0,0   c0.5,0,1.1-0.1,1.6-0.2c1-0.2,1.2-1.2,1.4-2.7c0.2-2.1,0.3-6,0.3-10.8v-8.9c0-7.8,0-9.2-0.1-10.8c-0.1-1.6-0.5-2.5-1.7-2.7   c-0.5-0.1-1.1-0.2-1.6-0.2c-0.2,0-0.4-0.2-0.4-0.4c0-0.3,0.2-0.4,0.8-0.4c1.7,0,5,0.1,5.2,0.1s3.6-0.1,5.2-0.1   c0.6,0,0.8,0.1,0.8,0.4c0,0.2-0.2,0.4-0.4,0.4c-0.4,0-0.9,0-1.3,0.1c-1.4,0.3-1.7,1-1.8,2.8c-0.1,1.6-0.1,3-0.1,10.8L514,84.1   L514,84.1z"></path>
	<path class="st6" d="M531.1,75.2c0-7.8,0-9.2-0.1-10.8c-0.1-1.6-0.4-2.5-2.1-2.8c-0.6-0.1-1.2-0.1-1.8-0.1c-0.2,0-0.4-0.2-0.4-0.4   c0-0.3,0.2-0.4,0.8-0.4c2.4,0,5.8,0.1,6.1,0.1c0.5,0,4.9-0.1,6.5-0.1c3.3,0,7,0.3,9.7,2.2c2.2,1.6,3.5,4.1,3.6,6.8   c0,3.7-1.5,7.3-6.4,11.4c4.2,5.3,7.8,9.8,10.8,13c2.8,2.8,4.5,3.3,5.8,3.5c0.6,0.1,1.2,0.2,1.8,0.2c0.2,0,0.4,0.2,0.5,0.4   c0,0.3-0.3,0.4-1.2,0.4h-3.2c-2.9,0-4.2-0.3-5.5-1c-2.2-1.2-4.1-3.6-7.1-7.4c-2.2-2.7-4.5-6-5.6-7.3c-0.2-0.2-0.4-0.3-0.7-0.3   l-6.6-0.1c-0.2,0-0.3,0.1-0.3,0.4V84c0,4.8,0,8.7,0.2,10.8c0.2,1.5,0.5,2.4,2.1,2.7c0.8,0.1,1.5,0.2,2.3,0.2c0.2,0,0.4,0.1,0.4,0.3   v0.1c0,0.2-0.2,0.4-0.8,0.4c-2.8,0-6.1-0.2-6.4-0.2c-0.1,0-3.5,0.2-5.1,0.2c-0.5,0-0.8-0.1-0.8-0.4c0-0.2,0.2-0.4,0.4-0.4l0,0   c0.5,0,1.1-0.1,1.6-0.2c1-0.2,1.1-1.2,1.3-2.7c0.3-3.6,0.4-7.2,0.3-10.8L531.1,75.2L531.1,75.2z M535.6,79.4c0,0.3,0.1,0.5,0.3,0.6   c1.9,0.6,3.8,0.8,5.7,0.8c1.4,0.1,2.7-0.2,3.9-0.9c1.8-1.2,3.1-3.8,3.1-7.7c0-6.2-3.4-9.9-9-9.9c-1.2,0-2.5,0.1-3.7,0.3   c-0.2,0.1-0.4,0.3-0.4,0.6L535.6,79.4z"></path>
	<path class="st6" d="M299.4,125.1c0-4.2,0-5-0.1-5.9s-0.2-1.4-1.1-1.5c-0.3,0-0.7-0.1-1-0.1c-0.1,0-0.2-0.1-0.2-0.2   c0-0.2,0.1-0.2,0.4-0.2c1.3,0,3,0.1,3.3,0.1c0.6,0,2.7-0.1,4-0.1c3.6,0,4.9,1.1,5.4,1.5c0.9,0.9,1.4,2,1.4,3.3   c0,3.9-2.9,6.5-7.3,6.5c-0.3,0-0.5,0-0.8,0c-0.1,0-0.3-0.1-0.3-0.2c0-0.2,0.2-0.3,0.7-0.3c3,0,5.2-1.9,5.2-4.4   c0.1-1.5-0.5-3-1.6-4.1c-1-1-2.4-1.5-3.8-1.3c-0.5,0-1,0.1-1.6,0.2c-0.2,0-0.2,0.2-0.2,0.5V130c0,2.6,0,4.8,0.1,5.9   c0.1,0.8,0.3,1.3,1.1,1.4c0.4,0.1,0.8,0.1,1.2,0.1c0.1,0,0.2,0.1,0.2,0.2l0,0c0,0.1-0.1,0.2-0.5,0.2c-1.5,0-3.4-0.1-3.5-0.1   s-1.9,0.1-2.8,0.1c-0.3,0-0.5-0.1-0.5-0.2c0-0.1,0.1-0.2,0.2-0.2l0,0c0.3,0,0.6-0.1,0.9-0.1c0.5-0.1,0.6-0.6,0.7-1.4   c0.2-2,0.2-3.9,0.2-5.9L299.4,125.1z"></path>
	<path class="st6" d="M317.7,125.1c0-4.2,0-5-0.1-5.9s-0.2-1.4-1.2-1.5c-0.3,0-0.6-0.1-1-0.1c-0.1,0-0.2-0.1-0.2-0.2   c0-0.2,0.1-0.2,0.5-0.2c1.3,0,3.2,0.1,3.3,0.1s2.6-0.1,3.5-0.1c1.8-0.1,3.7,0.3,5.2,1.2c1.2,0.9,1.9,2.2,2,3.7c0,2-0.8,4-3.5,6.2   c2.3,2.9,4.3,5.4,5.9,7s2.4,1.8,3.1,1.9c0.3,0.1,0.7,0.1,1,0.1c0.1,0,0.2,0.1,0.2,0.2c0,0.2-0.2,0.2-0.7,0.2h-1.8   c-1,0.1-2.1-0.1-3-0.6c-1.2-0.6-2.2-2-3.8-4c-1.2-1.5-2.4-3.2-3-4c-0.1-0.1-0.2-0.2-0.4-0.2l-3.6-0.1c-0.1,0-0.2,0.1-0.2,0.2v0.6   c0,2.6,0,4.7,0.1,5.9c0.1,0.8,0.3,1.3,1.1,1.4c0.4,0.1,0.8,0.1,1.2,0.1c0.1,0,0.2,0.1,0.2,0.2l0,0c0,0.1-0.1,0.2-0.5,0.2   c-1.5,0-3.3-0.1-3.5-0.1s-1.9,0.1-2.8,0.1c-0.3,0-0.4-0.1-0.4-0.2c0-0.1,0.1-0.2,0.2-0.2l0,0c0.3,0,0.6-0.1,0.9-0.1   c0.5-0.1,0.6-0.6,0.7-1.4c0.2-2,0.2-3.9,0.2-5.9L317.7,125.1z M320.1,127.4c0,0.1,0.1,0.3,0.2,0.4c1,0.3,2.1,0.4,3.1,0.4   c0.7,0.1,1.5-0.1,2.1-0.5c1-0.6,1.7-2.1,1.7-4.2c0-3.4-1.9-5.4-4.9-5.4c-0.7,0-1.3,0.1-2,0.2c-0.1,0.1-0.2,0.2-0.2,0.3L320.1,127.4   z"></path>
	<path class="st6" d="M347.6,116.8c6.3,0,11.1,3.9,11.1,10.2c0.1,6-4.7,11-10.7,11.1c-0.2,0-0.4,0-0.6,0c-7.7,0-11-5.8-11-10.7   c0.1-5.9,5-10.7,10.9-10.6C347.4,116.8,347.5,116.8,347.6,116.8z M348.2,137c2.5,0,7.6-1.4,7.6-9.2c0-6.5-4-10-8.4-10   c-4.7,0-8.1,3-8.1,8.9C339.3,133.1,343.1,137.1,348.2,137L348.2,137z"></path>
	<path class="st6" d="M367.5,131.6c0,4.4-0.1,6.1-0.9,8c-0.6,1.4-1.9,2.7-4.1,4.2c-0.4,0.3-0.9,0.6-1.2,0.7c-0.1,0-0.1,0-0.2,0   s-0.2,0-0.2-0.2s0.1-0.3,0.4-0.4c0.4-0.2,0.7-0.5,1-0.7c1.8-1.8,2.7-3.2,2.7-10.2v-7.8c0-4.2,0-5-0.1-5.9s-0.2-1.4-1.1-1.5   c-0.2,0-0.7-0.1-1-0.1c-0.1,0-0.2-0.1-0.2-0.2c0-0.2,0.1-0.2,0.5-0.2c1.3,0,3.1,0.1,3.3,0.1s1.9-0.1,2.8-0.1c0.3,0,0.5,0.1,0.5,0.2   s-0.1,0.2-0.2,0.2c-0.2,0-0.5,0-0.7,0.1c-0.8,0.2-0.9,0.6-1,1.5s0,1.6,0,5.9L367.5,131.6z"></path>
	<path class="st6" d="M376.7,125.1c0-4.2,0-5-0.1-5.9s-0.2-1.4-1.2-1.5c-0.3,0-0.7-0.1-1-0.1c-0.1,0-0.2-0.1-0.2-0.2   c0-0.2,0.1-0.2,0.5-0.2c1.3,0,3.1,0.1,3.3,0.1s6.1,0,6.7,0c0.4,0,0.9-0.1,1.3-0.2c0.1-0.1,0.3-0.1,0.4-0.1s0.1,0.1,0.1,0.2   s-0.2,0.5-0.2,1.3c0,0.3-0.1,1.5-0.2,1.8c0,0.1-0.1,0.3-0.3,0.3s-0.2-0.1-0.2-0.4s0-0.7-0.2-1c-0.2-0.4-0.5-0.6-2-0.8   c-0.5-0.1-3.7-0.1-4.1-0.1c-0.1,0-0.2,0.1-0.2,0.3v7.5c0,0.2,0,0.3,0.2,0.3c0.4,0,4.1,0,4.7-0.1s1.1-0.1,1.4-0.4s0.3-0.4,0.4-0.4   s0.2,0.1,0.2,0.2c-0.1,0.5-0.2,1-0.2,1.5c-0.1,0.5-0.1,1.6-0.1,1.8s-0.1,0.5-0.2,0.5s-0.2-0.1-0.2-0.3c0-0.3,0-0.6-0.1-0.9   c-0.1-0.4-0.4-0.7-1.4-0.8c-0.8-0.1-3.8-0.1-4.3-0.1c-0.1,0-0.2,0.1-0.2,0.1l0,0v2.3c0,0.9,0,4.1,0,4.6c0.1,1.8,0.6,2.2,3.4,2.2   c0.9,0,1.9-0.1,2.8-0.3c0.8-0.3,1.3-1.1,1.3-1.9c0.1-0.3,0.1-0.4,0.3-0.4s0.2,0.2,0.2,0.4c-0.1,0.9-0.2,1.8-0.4,2.6   c-0.2,0.7-0.5,0.7-1.6,0.7c-2.1,0-3.7-0.1-4.9-0.1s-1.9-0.1-2.3-0.1c-0.1,0-0.6,0-1.2,0s-1.2,0.1-1.6,0.1c-0.3,0-0.4-0.1-0.4-0.2   c0-0.1,0.1-0.2,0.2-0.2l0,0c0.3,0,0.6-0.1,0.9-0.1c0.5-0.1,0.6-0.6,0.7-1.4c0.2-2,0.2-3.9,0.2-5.9L376.7,125.1z"></path>
	<path class="st6" d="M394.6,135.2c-2.3-2-3.5-5-3.4-8.1c0-2.8,1.2-5.5,3.2-7.4c1.7-1.6,4.2-2.9,8.6-2.9c1.4,0,2.7,0.1,4.1,0.3   c0.9,0.2,1.9,0.3,2.9,0.4c0.3,0,0.4,0.1,0.4,0.3s-0.1,0.6-0.1,1.5s0,2.4-0.1,2.8s-0.2,0.6-0.3,0.6s-0.2-0.2-0.2-0.6   c0-1-0.4-2-1.2-2.7c-1.6-1.1-3.6-1.6-5.5-1.5c-3.6,0-5.4,1-6.3,1.9c-2.1,1.9-2.5,4.4-2.5,7.1c0,5.5,4.5,9.9,9.9,9.9   c0.1,0,0.2,0,0.3,0c2.1,0,3.5-0.2,4.6-1.3c0.5-0.7,0.9-1.4,1.1-2.3c0.1-0.3,0.1-0.4,0.3-0.4s0.3,0.2,0.3,0.4   c-0.2,1.2-0.4,2.3-0.7,3.5c-0.2,0.5-0.2,0.6-0.7,0.8c-1.7,0.5-3.4,0.7-5.1,0.6C399.6,138.1,396.8,137.1,394.6,135.2z"></path>
	<path class="st6" d="M423,129.9c0,2.6,0,4.8,0.1,5.9c0.1,0.8,0.2,1.3,1.1,1.4c0.4,0.1,0.9,0.1,1.3,0.1c0.1,0,0.2,0.1,0.2,0.2l0,0   c0,0.1-0.1,0.2-0.5,0.2c-1.5,0-3.3-0.1-3.5-0.1s-2.1,0.1-2.9,0.1c-0.3,0-0.4-0.1-0.4-0.2c0-0.1,0.1-0.2,0.2-0.2l0,0   c0.3,0,0.6-0.1,0.8-0.1c0.6-0.1,0.7-0.7,0.8-1.5c0.1-1.1,0.1-3.3,0.1-5.9v-11.4l-4.1,0.1c-1.8,0-2.4,0.2-2.9,0.9   c-0.2,0.3-0.3,0.6-0.5,0.9c-0.1,0.2-0.2,0.3-0.3,0.3c-0.1,0-0.2-0.1-0.2-0.2c0-0.3,0.5-2.7,0.6-2.9s0.2-0.5,0.3-0.5   c0.4,0.1,0.8,0.2,1.2,0.3c0.8,0.1,1.9,0.1,2.2,0.1h10.6c0.7,0,1.3,0,2-0.1c0.4-0.1,0.7-0.1,0.8-0.1s0.1,0.2,0.1,0.3   c0,0.8-0.1,2.8-0.1,3.1s-0.1,0.4-0.2,0.4s-0.2-0.1-0.2-0.5V120c-0.1-0.8-0.7-1.4-3.4-1.5l-3.5-0.1L423,129.9z"></path>
	<path class="st6" d="M342.2,36.1c0,2.6,0,4.8,0.1,5.9c0.1,0.8,0.2,1.3,1.1,1.4c0.4,0.1,0.9,0.1,1.3,0.1c0.1,0,0.2,0.1,0.2,0.2   c0,0,0,0,0,0.1s-0.1,0.2-0.5,0.2c-1.5,0-3.3-0.1-3.5-0.1S338.8,44,338,44c-0.3,0-0.5-0.1-0.5-0.2s0.1-0.2,0.2-0.2   c0.3,0,0.6-0.1,0.8-0.1c0.6-0.1,0.7-0.7,0.8-1.5c0.1-1.1,0.1-3.3,0.1-5.9V24.7l-4.1,0.1c-1.8,0-2.4,0.2-2.8,0.9   c-0.2,0.3-0.3,0.6-0.5,0.9c-0.1,0.2-0.2,0.2-0.3,0.2c-0.1,0-0.2-0.1-0.2-0.2c0-0.3,0.5-2.7,0.6-2.9s0.2-0.5,0.3-0.5   c0.4,0.1,0.8,0.2,1.2,0.3c0.8,0.1,1.9,0.1,2.2,0.1h10.6c0.7,0,1.3,0,2-0.1c0.4-0.1,0.7-0.1,0.8-0.1s0.1,0.2,0.1,0.3   c0,0.8-0.1,2.8-0.1,3.1s-0.1,0.3-0.3,0.3s-0.2-0.1-0.2-0.5v-0.3c-0.1-0.8-0.7-1.4-3.4-1.5l-3.5-0.1L342.2,36.1z"></path>
	<path class="st6" d="M372.8,36.1c0,2.6,0,4.8,0.2,5.9c0.1,0.8,0.2,1.3,1,1.4c0.4,0.1,0.8,0.1,1.2,0.1c0.1,0,0.2,0.1,0.3,0.2l0,0   c0,0.1-0.2,0.2-0.5,0.2c-1.5,0-3.3-0.1-3.5-0.1s-2,0.1-2.8,0.1c-0.3,0-0.4-0.1-0.4-0.2c0-0.1,0.1-0.2,0.2-0.2l0,0   c0.3,0,0.6-0.1,0.8-0.1c0.6-0.1,0.7-0.7,0.8-1.5c0.1-1.1,0.1-3.2,0.1-5.8v-2.7c0-0.1,0-0.1-0.1-0.2l0,0h-11.7c-0.1,0-0.1,0-0.2,0.1   l0,0V36c0,2.6,0,4.7,0.1,5.8c0.1,0.8,0.2,1.3,1,1.4c0.4,0.1,0.9,0.1,1.3,0.1c0.1,0,0.2,0.1,0.2,0.2l0,0c0,0.1-0.1,0.2-0.5,0.2   c-1.6,0-3.4-0.1-3.5-0.1s-1.9,0.1-2.8,0.1c-0.3,0-0.5-0.1-0.5-0.2c0-0.1,0.1-0.2,0.2-0.2l0,0c0.3,0,0.6-0.1,0.9-0.1   c0.5-0.1,0.6-0.6,0.7-1.4c0.2-2,0.2-3.9,0.2-5.9v-4.8c0-4.2,0-5-0.1-5.9s-0.2-1.4-1.1-1.5c-0.2,0-0.7-0.1-1-0.1   c-0.1,0-0.2-0.1-0.2-0.2c0-0.2,0.1-0.2,0.5-0.2c1.3,0,3.1,0.1,3.2,0.1s1.9-0.1,2.8-0.1c0.3,0,0.5,0.1,0.5,0.2s-0.1,0.2-0.2,0.2   c-0.2,0-0.5,0-0.7,0.1c-0.8,0.2-0.9,0.5-1,1.5s0,1.7,0,5.9V32c0,0.2,0.1,0.2,0.2,0.2h11.8c0.1,0,0.2,0,0.2-0.2v-0.6   c0-4.2,0-5-0.1-5.9S370,24.1,369,24c-0.3,0-0.7-0.1-1-0.1c-0.1,0-0.2-0.1-0.2-0.2c0-0.2,0.1-0.2,0.5-0.2c1.2,0,3.1,0.1,3.2,0.1   s2-0.1,2.8-0.1c0.3,0,0.5,0.1,0.5,0.2s-0.1,0.2-0.3,0.2c-0.2,0-0.5,0-0.7,0.1c-0.7,0.2-0.9,0.5-1,1.5s-0.1,1.6-0.1,5.9L372.8,36.1z   "></path>
	<path class="st6" d="M382.1,31.3c0-4.2,0-5-0.1-5.9s-0.2-1.4-1.1-1.5c-0.3,0-0.7-0.1-1-0.1c-0.1,0-0.2-0.1-0.2-0.2   c0-0.2,0.1-0.2,0.5-0.2c1.3,0,3.1,0.1,3.3,0.1s6.1,0,6.7,0s1-0.1,1.3-0.2s0.3-0.1,0.4-0.1s0.1,0.1,0.1,0.3   c-0.1,0.4-0.2,0.8-0.2,1.3c0,0.3-0.1,1.5-0.2,1.8c0,0.1-0.1,0.3-0.3,0.3s-0.2-0.1-0.2-0.3c0-0.3-0.1-0.7-0.2-1   c-0.2-0.5-0.5-0.6-2-0.8c-0.5-0.1-3.7-0.1-4.1-0.1c-0.1,0-0.2,0.1-0.2,0.3v7.4c0,0.2,0,0.3,0.2,0.3c0.4,0,4.1,0,4.7-0.1   s1.1-0.1,1.4-0.4s0.3-0.3,0.4-0.3s0.2,0.1,0.2,0.2c-0.1,0.5-0.2,1-0.2,1.5c-0.1,0.5-0.1,1.6-0.1,1.8s-0.1,0.5-0.3,0.5   s-0.2-0.1-0.2-0.3c0-0.3,0-0.6-0.1-0.9c-0.1-0.4-0.4-0.7-1.5-0.8c-0.8-0.1-3.8-0.1-4.2-0.1c-0.2,0-0.2,0.1-0.2,0.2v2.3   c0,0.9,0,4.1,0,4.6c0.1,1.8,0.6,2.2,3.4,2.2c0.9,0,1.9-0.1,2.8-0.3c0.8-0.3,1.3-1,1.3-1.8c0.1-0.3,0.1-0.4,0.3-0.4s0.2,0.2,0.2,0.4   c-0.1,0.9-0.2,1.8-0.4,2.6c-0.2,0.7-0.5,0.7-1.6,0.7c-2.1,0-3.7-0.1-4.9-0.1s-1.9-0.1-2.3-0.1c-0.1,0-0.6,0-1.2,0S381,44,380.5,44   c-0.3,0-0.5-0.1-0.5-0.2c0-0.1,0.1-0.2,0.2-0.2l0,0c0.3,0,0.6-0.1,0.9-0.1c0.5-0.1,0.6-0.6,0.7-1.4c0.2-2,0.2-3.9,0.2-5.9   L382.1,31.3z"></path>
	<line class="st7" x1="166.7" y1="125.4" x2="284.3" y2="125.4"></line>
	<line class="st8" x1="438.3" y1="125.4" x2="563" y2="125.4"></line>
	<line class="st9" x1="166.7" y1="31.5" x2="314.3" y2="31.5"></line>
	<line class="st10" x1="410.3" y1="31.5" x2="564.2" y2="31.5"></line>
	<polygon class="st5" points="61.9,37.6 61.9,37.7 62.4,37.5  "></polygon>
	<path class="st5" d="M77.1,65.3c-0.1,0-0.1,0.1-0.1,0.3C77.5,65.6,76.9,65.6,77.1,65.3z"></path>
	<path class="st5" d="M89.5,62.5L89.5,62.5C89.4,62.6,89.5,62.5,89.5,62.5z"></path>
	<path class="st5" d="M84.9,64.5c0.1,0.1,0.1,0.4,0.2,0.3c-0.1-0.3-0.3-0.6-0.7-0.6l0,0c0.1,0.1,0.1,0.2,0.1,0.3   C84.7,64.5,84.9,64.7,84.9,64.5z"></path>
	<path class="st5" d="M84.5,64.7c0-0.1,0.1-0.1,0.1-0.2C84.5,64.5,84.5,64.5,84.5,64.7z"></path>
	<path class="st5" d="M77.5,65.1c0.1,0.2,0.3,0.4,0.5,0.6C77.9,65.2,77.6,65.2,77.5,65.1z"></path>
	<path class="st5" d="M84.3,64.3l-0.2-0.1c0,0,0.1,0.2,0,0.3C84.3,64.6,84.3,64.4,84.3,64.3z"></path>
	<path class="st5" d="M85.3,64.3c0.2-0.1,0.4-0.4,0.3-0.6L85.3,64.3z"></path>
	<path class="st5" d="M87.4,63.8c0,0.1,0,0.2,0.1,0.3C87.6,64,87.6,63.9,87.4,63.8z"></path>
	<path class="st5" d="M87.5,63.4L87.5,63.4C87.6,63.3,87.5,63.3,87.5,63.4z"></path>
	<path class="st5" d="M87.2,63.3c0.1,0.3,0.2,0.1,0.3,0.1C87.4,63.3,87.3,63.2,87.2,63.3z"></path>
	<path class="st5" d="M90.5,62.3c0.1,0.3,0.2-0.2,0.3-0.1C90.6,62,90.5,62.3,90.5,62.3z"></path>
	<path class="st5" d="M91.8,61.2C91.8,61.3,91.7,61.3,91.8,61.2l0.1,0.3C91.9,61.4,91.9,61.3,91.8,61.2L91.8,61.2z"></path>
	<polygon class="st5" points="111.2,41.1 111.2,40.9 111,41  "></polygon>
	<path class="st5" d="M83.2,56C83,56,83.2,56,83.2,56C83.3,56.2,83.3,56.1,83.2,56z"></path>
	<path class="st5" d="M81.1,56.8c-0.1,0-0.2-0.1-0.2-0.1c0.2,0.1,0.3,0.1,0.5,0.1l0,0H81.1C81.2,56.8,81,56.8,81.1,56.8z"></path>
	<path class="st5" d="M78.4,65.8L78.4,65.8L78.4,65.8L78.4,65.8L78.4,65.8L78.4,65.8z"></path>
	<path class="st5" d="M83.3,56.2c-0.1-0.1-0.3-0.1-0.4-0.1C83,56.2,83.1,56.2,83.3,56.2z"></path>
	<path class="st5" d="M81.1,56.9c0,0,0.1,0.1,0.2,0.2L81.1,56.9z"></path>
	<path class="st5" d="M80.6,57.2c0,0-0.1-0.1-0.2-0.1C80.5,57.1,80.5,57.2,80.6,57.2z"></path>
	<path class="st5" d="M80.8,57.3C80.9,57.3,80.9,57.3,80.8,57.3C80.8,57.2,80.8,57.3,80.8,57.3z"></path>
	<path class="st5" d="M80.3,57.8C80.4,57.8,80.3,57.8,80.3,57.8C80.2,57.7,80.4,57.8,80.3,57.8z"></path>
	<path class="st5" d="M80.4,58.1h-0.2C80.3,58.2,80.4,58.2,80.4,58.1C80.4,58.2,80.4,58.1,80.4,58.1z"></path>
	<polygon class="st5" points="79,63.1 79.1,63.2 79.1,63.2  "></polygon>
	<path class="st5" d="M78.1,65.2C78.1,65.2,78.3,65.3,78.1,65.2C78.1,65.1,78.1,65.1,78.1,65.2z"></path>
	<polygon class="st5" points="78.9,66.9 78.9,66.9 79,66.7  "></polygon>
	<path class="st5" d="M83,27.5L83,27.5L83,27.5c0.1,0,0.2,0,0.2,0s0.1,0,0.1-0.1l0.1,0.1c-0.1-0.1-0.1-0.2-0.2-0.2l0,0   c-0.1,0-0.2,0.1-0.3,0.1L83,27.5L83,27.5z"></path>
	<path class="st5" d="M60.2,27.4C60.1,27.3,60.1,27.4,60.2,27.4L60.2,27.4C60.1,27.4,60.1,27.4,60.2,27.4z"></path>
	<path class="st5" d="M83.1,27.6L83.1,27.6c0.1,0.1,0.3,0.2,0.2,0.1C83.2,27.7,83.1,27.7,83.1,27.6z"></path>
	<path class="st5" d="M83.1,27.7C83.1,27.8,83.2,27.8,83.1,27.7L83.1,27.7z"></path>
	<path class="st5" d="M60.1,27.6c0-0.1,0-0.1-0.1-0.2l0,0C60,27.5,60,27.5,60.1,27.6L60.1,27.6z"></path>
	<path class="st5" d="M113.6,34.3C113.7,34.4,113.7,34.4,113.6,34.3L113.6,34.3C113.7,34.4,113.6,34.4,113.6,34.3z"></path>
	<path class="st5" d="M82.1,30.9L82,31h0.1V30.9z"></path>
	<path class="st5" d="M113.7,33.8c0,0,0-0.1,0-0.2S113.6,33.8,113.7,33.8z"></path>
	<path class="st5" d="M78.8,65.9L78.8,65.9L78.8,65.9C78.7,65.8,78.7,65.8,78.8,65.9z"></path>
	<path class="st6" d="M126.5,15.8C119,7,69.4-13.2,22.5,13c-4.4,22,0.2,43.2,0.2,43.2c16.5,7.4,15.1,17.1,16.4,23.3   c31.7-5.2,66.6,0,66.6,0c1.3-20,16.5-22.3,16.5-22.3S131,21,126.5,15.8z M112.5,22.2l-0.4,0.2L112.5,22.2L112.5,22.2z M84,21.9   c-0.1,0-0.2,0-0.3,0C83.8,21.7,84,21.7,84,21.9L84,21.9z M82.5,18.6c-0.1,0.2,0.4,0.2,0.1,0.3C82.6,18.8,82.4,18.8,82.5,18.6   L82.5,18.6z M59.7,32.3c0-0.1,0.3,0,0.2-0.2C60.1,32.3,59.7,32.3,59.7,32.3z M78.2,27.5c0.1-0.1,0.2-0.2,0.3-0.3s-0.2,0.1-0.3,0.1   S78.3,27.3,78.2,27.5c-0.3,0-0.1-0.3-0.3-0.1c0.1-0.1,0.2-0.2,0.3-0.3h-0.1c0.2-0.2,0.5-0.2,0.8-0.5h-0.1c0.2-0.2,0.3-0.1,0.3-0.3   c-0.2,0.1-0.4,0.2-0.5,0.4c-0.1,0-0.5,0.4-0.6,0.3c0.1-0.1,0.1,0,0.2-0.1s-0.2,0-0.1-0.1C78,26.9,77.9,27,77.8,27   c0-0.1,0.2-0.1,0.2-0.2s-0.3,0.1-0.3,0.2c-0.3,0.2,0-0.1-0.2,0c0.2-0.2,0.5-0.3,0.5-0.5c-0.2,0.2-0.3,0.1-0.5,0.4   c0.1-0.1,0.2-0.2,0.3-0.3c0.1-0.1-0.4,0.2-0.1-0.1l-0.2,0.2l0.2-0.2c0,0-0.3,0.1-0.1-0.1c0,0-0.1-0.1-0.2,0.1s0.2-0.1,0,0.2   c0.2-0.2-0.1,0-0.2,0l0.1-0.1c0,0-0.1,0-0.2,0c0.1,0,0.1-0.1,0.1-0.1L77,26.6c-0.1,0,0.3-0.3,0.2-0.3l0.2-0.1c0,0,0.1-0.1,0-0.1   l-0.5,0.3c-0.1,0,0.2-0.2,0-0.1l0.2-0.1c0,0,0.2-0.2,0.2-0.3s-0.3,0.2-0.4,0.3s0-0.1,0.2-0.2c-0.1,0-0.2,0.2-0.3,0.2   c0.1-0.1,0.2-0.3,0.3-0.5l0.3-0.2l0,0c0.2-0.1,0.1-0.2,0.4-0.3c0,0-0.1,0-0.2,0c-0.3,0.4-0.5,0.3-0.8,0.6c-0.2,0,0.7-0.7,0.1-0.4   c0,0.1-0.2,0.2-0.2,0.2s-0.3,0.2-0.2,0.1s0.3-0.3,0.5-0.4c-0.1,0.1,0,0.1,0,0.1l0.3-0.3c0,0-0.1,0-0.3,0.1s0.1,0-0.1,0.2   s0.1-0.3-0.2,0c0.1,0-0.1,0.2-0.2,0.3h-0.1l0.1-0.1c0-0.2-0.2,0.2-0.3,0l0.2-0.2c0.2-0.2,0,0.2,0.3-0.1c0-0.1-0.2,0.1-0.2-0.1h0.1   c0,0,0.4-0.4,0.1-0.3c-0.1,0-0.1,0.1-0.2,0.2s-0.2,0-0.3,0c0.2-0.2-0.1-0.1,0.2-0.3c-0.1,0.2,0,0.3,0.2,0.1s0,0.1,0.3-0.1   c-0.1-0.1,0.2-0.3,0.4-0.5h-0.1c-0.2,0.1-0.2,0.2-0.3,0.3c0-0.1-0.2-0.1-0.4,0c0.1-0.1,0.2-0.2,0.3-0.2c-0.1,0-0.2-0.2-0.2-0.3   c-0.2,0.2-0.2,0-0.3,0.1c0.1-0.1,0.1-0.1,0.2-0.2c-0.2,0,0.2-0.1,0.1-0.2c-0.1,0-0.3,0-0.4,0c0.1-0.3-0.2-0.2-0.2-0.3   s0.3-0.3,0.3-0.4s-0.2,0.3-0.2,0.1H76c-0.1,0,0-0.3-0.3,0L76,23h-0.1l0.2-0.2c0.1-0.2-0.1-0.1-0.2-0.1l-0.1,0.2   c-0.2,0-0.1-0.2-0.2-0.2l0.2-0.1h-0.1c0.1-0.1,0.2-0.2,0.1-0.2l0.4-0.2c-0.1,0.1-0.2,0.1-0.3,0.3s0,0.2,0.2,0.1c0,0,0,0-0.1,0   c0.2-0.2,0.2-0.1,0.4-0.2l0,0c0,0,0.1,0,0.2,0s-0.1,0.1-0.2,0.2c0.2-0.2,0.3-0.2,0.3-0.1c-0.2,0.2,0.2,0,0.2,0.1   c-0.2,0.1-0.3,0.2-0.5,0.3c0,0.1,0,0,0,0.2c0.2-0.1,0.3-0.2,0.5-0.3l-0.1,0.1c0.1,0,0.3-0.2,0.3-0.1s0.1,0.3,0.2,0.4H77   c0.3-0.2,0.2,0.1,0.4,0c0,0.2,0.3,0.1,0.2,0.4c0.3,0,0.5,0.2,0.7,0.4l-0.2,0.1c0.2-0.1-0.1,0.1,0,0.1c0.1-0.2,0.2-0.1,0.4-0.2   c-0.1,0.2,0.2,0.2,0.4,0.2l-0.1,0.1c0.3-0.2,0.2,0.2,0.2,0.3s-0.2,0.2-0.1,0.2c0.1-0.1,0.3-0.1,0.5-0.1c0.1,0.1,0.1,0.2,0.1,0.3   c0.5,0,0.5,0.3,0.9,0.4l-0.1,0.2c0.5-0.1,0.5,0.5,0.8,0.5l-0.3,0.2c0,0.1,0.2,0.1,0.4-0.1c0,0.1,0,0.1,0.1,0.1   c0-0.2-0.1-0.4-0.1-0.6l0.3-0.1c-0.7,0-0.4-0.6-0.8-0.8c0.2-0.5-0.6-0.9-0.1-1.3c-0.5-0.6-0.9-1.4-1.2-2.1h0.5   c-0.4,0,0.2-0.2,0.1-0.3c-0.3,0.3-0.5,0-0.8,0c0.2-0.5-0.4-0.8-0.8-0.9l0.3-0.2c-0.7,0-0.4-0.6-0.5-1c0.1-0.1,0.3-0.3,0.2-0.4   c-0.3,0-0.7,0-1-0.2c-0.1-0.1-0.1-0.3-0.2-0.4c0-0.2-0.1-0.3-0.1-0.5c-0.2-0.1-0.5-0.2-0.7-0.3c-0.2-0.1-0.3-0.2-0.5-0.4   c-0.3-0.3-0.6-0.5-1-0.6L75,16c-0.2,0-0.4,0-0.7,0c-0.2-0.1-0.3-0.1-0.5-0.2l-0.2-0.1c-0.1,0-0.1-0.1-0.2-0.1   c-0.1-0.1-0.3-0.1-0.4,0l0.1-0.5c-0.2-0.2-0.4,0.1-0.4,0.5c-0.1-0.1-0.2,0-0.3,0s-0.2,0-0.2-0.2c-0.2-0.1-0.2,0.3-0.3,0.4   c-0.2-0.1-0.4-0.1-0.6,0h-0.1c0,0,0,0,0,0.1H71l0.1-0.1c0-0.2-0.1-0.3-0.2-0.3c-0.1,0.2-0.6,0-0.2,0.7c-0.2-0.2-0.4,0-0.6,0.2   s-0.4,0.3-0.7,0.2c0.1,0.2,0,0.2,0.1,0.4c-0.1,0-0.2,0.1-0.3,0.1l0,0c0,0,0.2-0.1,0.1-0.1l0,0l0,0h-0.1L69,17.1   c-0.1,0-0.2,0.1-0.3,0.2l-0.1,0.1v0.1c-0.1,0-0.1-0.3-0.2-0.3s0.2,0.2,0.2,0.4c0,0.1,0,0.1-0.1,0.2l-0.1,0.1L68.3,18   c-0.1,0.1-0.3,0.1-0.4,0.2c-0.2,0-0.3,0.1-0.4,0.2s-0.3,0.2-0.3,0.3c-0.1,0.2-0.2,0.5-0.3,0.7l-0.2,0.3L66.5,20   c-0.3,0.4-0.5,0.9-0.7,1.3l-0.1-0.1c0.2,0.3,0,0.4-0.2,0.5s-0.3,0.3,0,0.5c-0.2,0-0.2,0.3-0.4,0.1c0.1,0.2,0,0.3-0.2,0.5   c-0.1,0.1-0.2,0.3-0.1,0.5l0,0l0.1,0.1l-0.1-0.1c-0.4,0.3-0.1,0.8-0.4,1.1c0,0-0.1-0.1-0.2-0.2c-0.3,0.1,0.5,0.5-0.2,0.5   c0,0.1,0.3,0.1,0.3,0.1c-0.5,0.9-0.2,2,0,3c-0.5,0.7-1.2,0-0.7,0.6c-0.1,0,0.3,0,0.1,0c0.2,0.2-0.8,0.3-0.4,0.5   c0.4-0.1,0.2,0.1,0.5,0.1c-0.3,0.4-0.7,0.5-0.3,0.9h-0.2c0.7,0.4,0.3,0.9,1.1,1.2c0.1,1.1,0.4,2.2,0.7,3.3c0.2,0.5,0.3,1,0.5,1.6   s0.3,1,0.5,1.5c0.1,0.3,0.1,0.6,0.2,0.9l0.1,0.4l0.1,0.2l0.1,0.2l0.3,0.7c0.1,0.2,0.2,0.5,0.3,0.7c0.2,0.5,0.4,1,0.6,1.5   s0.4,1,0.5,1.6c-0.3,0.7-0.3,0.8,0.2,1.2c-0.1,0-0.1,0-0.2,0.1c0.5-0.2,0.2,0.3,0.7,0.2c0.1,0.4,0.3,0.7,0.5,1.1   c0.2,0.3,0.4,0.7,0.7,1c-0.1-0.1-0.5,0.1-0.4,0.2h0.4l-0.1,0.1c0.2,0.1,0.4,0,0.5-0.2c0.4,0.4,0.7,0.8,1,1.3   c0.1,0.2,0.3,0.5,0.4,0.7s0.3,0.5,0.4,0.7s0.2,0.5,0.4,0.7s0.3,0.5,0.4,0.7c0.3,0.5,0.6,0.9,1,1.3c0.2,0.5,0.8,0.9,1.2,1.2   c0.6,1.6,1.4,3.1,3,3.8c0,0-1,0.8-1.8,0.6c-0.6,0.1-1.2-0.2-1.5-0.7c-0.4-0.4-0.7-0.9-1.3-1c-0.1,0,0.5-0.4,0.2-0.5   c-0.6-0.1-1.2-0.4-1.5-1c-0.4-0.6-0.6-1.3-0.7-2l0.2-0.1c0-0.2-0.7-0.1-0.8-0.3c0.1-0.1,0.2,0,0.3-0.2c-0.3,0.2-0.4-0.2-0.7-0.1   c0-0.2,0.3-0.3,0.3-0.5l-0.4,0.1c-1,0.3-0.5-0.8-1.2-0.9c0.1,0,0.2,0,0.2-0.1c-1-0.3-1.5-1.3-2.2-1.9c0.2-0.1,0.4-0.2,0.5-0.3   c-0.3,0.1-0.6,0.1-0.8-0.2c0.3-0.3-0.6-0.2-0.5-0.6h0.1c-0.5,0,0.1-0.4-0.5-0.3l0.2-0.3c-0.6,0.2,0.1-0.4-0.2-0.4L65.8,47   c-0.2-0.1,0-0.3-0.2-0.4h0.1c-0.3-0.2-0.1-0.6-0.6-0.4c0.3-0.3,0.3,0.2,0.7-0.2c-0.5-0.4-0.9-0.9-1.2-1.5c-0.3-0.6-0.5-1.1-0.8-1.7   c0.1-0.2,0.2-0.3,0.3-0.4c0-0.1-0.1-0.4-0.3-0.4l0.2-0.2c0.1-0.3-0.6,0-0.5-0.3c0.2,0,0.3,0,0.5-0.1c-0.4-0.1-0.5-0.3-0.7-0.5   c0.1,0,0.2,0,0.3,0c-0.5-0.1-0.1-0.5-0.4-0.6h0.3c0.2-0.5-0.6,0.1-0.5-0.3c0.1,0,0.2,0,0.3,0c-0.6-0.1-0.6-0.7-0.8-0.9h0.1   c-0.1-0.2-0.1-0.3-0.2-0.5c0-0.2-0.1-0.4-0.3-0.5c0.1-0.2,0.7-0.1,0.5-0.5c-0.6,0.2-0.4-0.5-0.9-0.2c0-0.3,0.1-0.8-0.1-1   c0.2,0.1,0.7-0.3,0.8,0l0.3-0.2c0.2,0,0,0.2,0.2,0.1c0-0.1-0.3-0.4-0.3-0.5c-0.4-0.2-1.1-0.3-1.2-0.6c0.2,0.1,0.5-0.1,0.7-0.1   l-0.5-0.2L61,34.6c0-0.1,0.4-0.1,0.3-0.2c-0.1,0-0.3,0-0.4-0.1c0.1-0.1-0.2-0.5,0.3-0.6c0.2-0.1,0.1,0.2,0.3,0   c0-0.2-0.2-0.2-0.3-0.5h0.1c0.1-0.2-0.3-0.4-0.6-0.2c0,0.1,0.3-0.1,0.2,0.1c-0.3-0.1-0.5-0.3-0.5-0.6c0.1,0.1,0.3,0.1,0.4,0.1   c-0.4-0.2-0.6-0.5-0.8-0.9c-0.1,0-0.1,0,0,0l0,0c0.1,0,0.3,0.1,0.3,0.1c0.3-0.5-0.5-0.9-0.1-1.3c-0.1,0-0.2,0-0.3,0   c0-0.2,0.4-0.2,0.3-0.4c0.2,0-0.1-0.2-0.2-0.3s0-0.1,0.1,0c-0.4-0.4-0.5-1.1-0.2-1.6c-0.2,0-0.5-0.3-0.5-0.4l0.3,0.1   c0.1,0,0.1-0.1,0.1-0.1l0,0c0-0.1,0-0.1,0-0.2l0,0c-0.1-0.2-0.2-0.3,0-0.5c-0.1,0.1,0.5,0.2,0.5,0s-0.2-0.1-0.2-0.4L60,26.5   c-0.3,0,0-0.3-0.3-0.2c0.2-0.1-0.1-0.5,0.4-0.4l0.4,0.1c0-0.1-0.4-0.3-0.6-0.4c0.1,0,0.1,0,0.2,0c-0.7-0.1,0.1-0.3-0.4-0.6   c0.3-0.2,0.1-0.7,0.6-0.8c-0.2-0.3-0.4-0.5-0.2-0.7c0,0.1,0,0.1,0.2,0.2c0.2-0.1,0.1-0.2,0-0.4c0.1,0.1,0.5-0.2,0.7-0.3   c-0.1-0.3-0.5-0.3-0.7-0.4c0.7,0-0.2-0.7,0.4-0.8c0.1,0.1,0.2,0.4,0.4,0.3c0.7,0-0.3-0.5,0.1-0.8l-0.6-0.1c0.4,0-0.1-0.6,0.4-0.4   c-0.2-0.2,0.3-0.3-0.2-0.5c0.3-0.2,0.4-0.5,0.5-0.8c0.1-0.4,0.5-0.6,0.8-0.5c0-0.1,0.1-0.2-0.2-0.3s0.1,0.3-0.1,0.2   c0-0.1-0.1-0.2-0.2-0.2c0.2-0.1,0.3-0.2,0.6,0.2c0.5-0.2-0.6-0.8-0.2-1.1c0.2,0.1,0.3,0.1,0.3,0l-0.2-0.4c0.3-0.2,0.5,0.1,0.8,0.3   c0-0.2,0.2-0.3,0-0.6l0.5,0.1c-0.4-0.1-0.1-0.2-0.1-0.4v0.1c0.2,0.1,0.2-0.1,0.2-0.2c-0.2-0.1-0.4-0.1-0.5,0   c-0.1-0.2,0-0.3-0.1-0.5c0.3,0.3,0.4-0.1,0.5-0.1s-0.1-0.4-0.1-0.4c0.2,0.1,0.2-0.2,0.3,0.1c0,0.1-0.2,0-0.2,0.2   c0.2,0,0.4,0.2,0.4-0.1s-0.6-0.5-0.2-0.5c0,0.1,0.1,0.3,0.2,0.4l0.3-0.1l-0.2-0.2c0.1,0,0.1,0.1,0.1,0.1c-0.2-0.3,0.2-0.4,0-0.7   c0.1-0.1,0.4,0,0.5-0.1l0,0c0.3,0,0.3-0.2,0.3-0.5v0.1c0.2-0.1,0.3-0.3,0.2-0.5c0.4,0,0.8,1,0.8,0.5c0.2-0.1-0.1-0.7-0.3-0.8   c0.1,0,0.2-0.1,0.3-0.1l0.1-0.1V13l0,0l0,0H66c0.2-0.2,0.5-0.3,0.7-0.1c0-0.1-0.1-0.2,0-0.3c0.3-0.1,0.6-0.3,0.9-0.5   c0.1-0.1,0.3-0.1,0.5-0.2c0.2,0,0.4,0,0.5,0.1c-0.1,0.2,0.1,0.3,0.2,0.5c0.1-0.3,0.3,0.2,0.2-0.3c-0.1-0.3-0.1-0.4-0.4-0.5   c0.2-0.2,0.4-0.3,0.7-0.3c0.2-0.1,0.4,0,0.6,0.1c-0.1-0.1-0.1-0.2,0-0.3c0.1,0.5,0.4,0.5,0.6,0.3v-0.3l0.2,0.3   c0.1-0.1,0-0.6,0.3-0.4c0,0.1,0,0.2,0.1,0.3l0.2-0.2c0.1-0.1,0.2-0.1,0.2-0.2c0.1-0.1,0.3-0.1,0.5,0c0,0,0.1,0.1,0.1,0.2   s0.1,0.2,0.1,0.2s0.4-0.3,0.2-0.4c0.5,0.3,0.8,0.4,0.8,0.8c0.2-0.2,0.5-0.3,0.8-0.3c0.1,0,0.3,0,0.4,0l0.4,0.1   c0.5,0.1,1,0.4,1.4,0.7L76,12.5c0.1,0.3,0.3-0.2,0.4,0c-0.2,0.1-0.1,0.5-0.4,0.6c0.1,0.4,0.6-0.1,0.8,0c0.2-0.2-0.3,0,0-0.2   c0.1,0,0.2,0.5,0.6,0.2c0,0.2-0.3,0.4-0.5,0.5h0.3c-0.1,0.3-0.3,0.4-0.6,0.4c-0.3,0.1-0.5,0.3-0.6,0.5l0.2,0.1   c-0.2,0.5-0.7,0.1-0.5,0.5c0.3,0,0.8-0.4,0.8-0.7c0.4,0.2,0.9-0.6,1.2-0.3c-0.1,0.3-0.3-0.2-0.5,0.1s0.4,0.2,0.5,0.4   c0-0.3,0.4-0.5,0.6-0.4c0,0.3-0.4,0.2-0.2,0.4c0.2-0.1,0.6,0,0.5-0.3c0.5-0.3,0.1,0.4,0.6,0.2c-0.2,0.3-0.9,0.3-0.9,0.8   c0.3-0.3,0.7,0,1-0.5c0,0.2-0.2,0.4-0.5,0.5c-0.1,0.3,0.9,0,0.3,0.5l0.4-0.2c-0.1,0.1-0.1,0.3-0.2,0.5c0.1,0.1,0.8,0.2,0.2,0.5   c0.1,0,0.3,0.3,0.5,0c0.1-0.3-0.4-0.1,0-0.5c-0.3,0.4,0.2,0.3,0.5,0.3l-0.2,0.1c0.1,0,0.2,0.2,0.4,0.1c-0.1,0-0.2,0.1-0.3,0.2   l0.3-0.1c0.3,0.2-0.5,0.4-0.2,0.6l-0.4-0.1c0.1,0-0.2,0.3,0,0.3c0.3-0.1,0.7-0.2,1-0.3s-0.2,0.2,0,0.2h-0.4c-0.1,0-0.4,0.4-0.3,0.6   s0.7,0.1,0.7-0.2c0.1,0.1,0,0.3-0.3,0.4c0.2,0.2,0.3-0.2,0.6-0.1c-0.2,0.2-0.3,0.6-0.5,0.9H81l0.1,0.2c-0.5,0-0.2,0.2-0.7,0.3   c0,0.1,0.2,0.2,0.3,0.2c0.5-0.6,1.1-0.1,1.6-0.5c0.3,0.3-1.4,0.9-0.2,0.9c0.1-0.1,0.5-0.1,0.5-0.2l-0.1-0.1c0.1,0,0.1,0.1,0.1,0.1   c0.2,0.1,0.6-0.1,0.5,0.2c-0.3-0.1-0.5,0.5-1,0.3c0.2-0.1,0.1-0.2,0-0.3c-0.2,0.2-0.6,0.2-0.5,0.5s0.2,0.3,0.5,0.2   s-0.1-0.2,0.3-0.3c0.2,0.3-0.3,0.5,0.4,0.4c-0.1-0.2,0.2-0.4,0.5-0.5l0.2,0.2h-0.3c0,0.4,0.5,0,0.6,0.3l-0.4,0.3   c-0.4,0.1,0-0.6-0.7-0.3c0.1,0.2,0.4,0.2,0.3,0.5c-0.1,0-0.1-0.1-0.2-0.1s-0.8,0.5-0.2,0.6c0.3,0.1,0.3,0,0.5-0.1   c0.2,0.3,0.5,0.4,0.6,0.6c-0.5,0.1,0.1,0.5-0.5,0.3c0.2-0.2,0-0.8-0.5-0.7c-0.5,0.3,0-0.3-0.6-0.2c0.1,0.3-0.5,0.5-0.8,0.7   c0,0.1,0.2,0.1,0.2,0.1c0.4-0.1,0.3-0.2,0.7-0.3c0,0.4,0.3,0.6,0.7,0.7c-0.1,0.2-0.5,0.2-0.6,0.1c0.2,0.4,0.3,0.8,0.3,1.2   c0.4-0.3,0.3,0.2,0.6,0.2c-0.2,0.1-0.4,0.1-0.6,0.2c0.3,0.2-0.3,0.1-0.3,0.3c0.3,0.2,0.6,0.4,0.8,0.7c0.1-0.3,0.2-0.6,0.3-0.9l0,0   h-0.1c-0.1,0,0.1-0.1,0.1-0.1s0,0,0.1,0c0.1-0.1,0.1-0.2,0.1-0.2c-0.1,0-0.2,0-0.3,0l0,0c0.1-0.2,0.3-0.4,0.5-0.4   c0.2-0.4,0.4-0.8,0.7-1.1c0.4,0,0.4,0,0.4-0.2c0,0,0,0,0.1,0.1c-0.3-0.1,0-0.1-0.2-0.3c0.1-0.2,0.3-0.5,0.3-0.7   c0,0.1,0.2,0.2,0.2,0.1l-0.1-0.1h0.1c-0.1-0.1-0.1-0.2-0.2-0.2c0.1-0.7,1-1.1,1.2-1.7c0.2-0.1,0.2-0.3,0.2-0.5   c0.6-0.3,1.1-0.6,1.1-1.2c0,0,0.6,0.4,0.7,0.7c0.5,0.6-0.3,0.6-0.1,1c0,0-0.3-0.2-0.3-0.1c0.3,0.5-0.2,0.8-0.7,0.9L87,20.7   c-0.1,0,0.2,0.3,0.1,0.3s-0.1,0-0.2-0.1c0.2,0.1,0,0.2,0.2,0.3c-0.1,0-0.2-0.1-0.3-0.1l0.2,0.1c0.4,0.4-0.2,0.2,0,0.5   c-0.1,0-0.1-0.1-0.1-0.1c0.2,0.4,0,0.6,0,1c-0.1-0.1-0.2-0.1-0.3-0.2c0.2,0.1,0.2,0.2,0.2,0.3c-0.2-0.1,0.2,0.2,0,0.2l0,0   c0.2,0.2-0.2,0,0.1,0.2L86.7,23c0.3,0.2-0.2,0-0.1,0.1h0.1c0.1,0.1-0.1,0-0.1,0.1l0,0c0,0.1-0.2,0.1,0.1,0.2   c-0.2-0.1,0-0.2-0.4-0.2c0,0.4-0.1,0.8-0.3,1.1c-0.1,0-0.2,0-0.3,0c0,0.1,0,0.2,0.1,0.2c-0.1,0-0.1,0-0.2,0s0.2,0.2,0.1,0.2   c-0.1-0.1-0.1-0.1-0.2-0.2c0.2,0.2,0.1,0.2,0.1,0.3l-0.1-0.1c0.2,0.2-0.1,0.1,0,0.2l-0.1-0.1c-0.2,0,0.3,0.2,0.1,0.2   c0,0-0.1-0.1-0.2-0.1c0.2,0.2,0.1,0.3,0.1,0.4h-0.1c0,0.1-0.1,0.2-0.1,0.3c-0.1,0-0.3-0.2-0.3-0.1c0.3,0.2,0,0.2,0.4,0.3   c-0.1,0-0.3,0.1-0.2,0.2c-0.1-0.1-0.4-0.2-0.4-0.2h-0.2c-0.1-0.1,0.1,0-0.1-0.1s0,0.2,0,0.2c0.2,0.2,0.5,0.4,0.4,0.5   c-0.1-0.1-0.3-0.1-0.3-0.2l0.5,0.4c0,0-0.2-0.1-0.2,0c0.1,0,0.1,0.1,0.2,0.1c0,0,0,0.2-0.3,0c-0.1,0,0-0.1-0.2-0.1s0.1,0.1,0,0.2   l0,0c-0.1,0,0.1,0.2,0.2,0.2l0,0c0,0-0.2-0.1-0.1-0.1c0,0,0.1,0,0.1,0.1c0.1,0.1,0.1,0.2,0.1,0.2c-0.1-0.1-0.1-0.1-0.2-0.1   c0.1,0.1,0.2,0.3,0.2,0.5l0,0l0,0c-0.1,0-0.1-0.1-0.2-0.1c-0.2,0,0.1,0.3-0.2,0.4l0.1,0.1c-0.1,0.1-0.2,0-0.2,0   c-0.1-0.1,0,0.1,0,0.2s0,0,0,0c0,0.2,0,0.5-0.2,0.6c0.1,0.1,0.1,0.3,0.1,0.4L84.1,29c0,0,0,0-0.1,0s0,0,0,0l0,0l0,0   c0,0.1,0,0.2-0.1,0.2c0,0-0.1-0.3-0.2-0.2s0.1,0.1,0,0.3v0.1c0.1,0.2,0,0.1,0.1,0.2c-0.1-0.1,0,0.3-0.2-0.1l-0.1-0.3   c0,0.2,0.1,0.4,0.2,0.5l-0.1-0.1c0.2,0.5-0.1,0.1,0,0.5c-0.1,0-0.2,0.3-0.3,0c0,0.2,0,0.5-0.1,0.5c0-0.1,0-0.2,0-0.2   c-0.1-0.1,0,0,0,0.2c-0.1-0.1-0.1-0.3-0.2-0.4c0,0.3,0.1,0.5,0.1,0.8C83,30.7,83,30.9,83,31.1s0,0.4-0.1,0.1c0-0.2,0-0.4-0.1-0.5   C83,31,83,31.1,83,31.3s0,0.5,0,0.4l0.1,0.5c0-0.1-0.1,0-0.1,0.1s0,0-0.1-0.3c0,0.2-0.1-0.3-0.1,0.2c0-0.2-0.1-0.3-0.3-0.5   c-0.1-0.1-0.2-0.2-0.2-0.7c0,0.1-0.1-0.1-0.1,0.2s0-0.1,0.1,0.1c0,0,0,0.1,0,0.2c-0.1-0.2-0.1-0.4,0-0.6c-0.1-0.4-0.1,0.7-0.3,0.3   c0,0,0,0,0-0.1l0,0l0,0c0,0,0,0,0-0.1s0,0,0,0c0-0.1,0-0.3,0-0.4h-0.1H82v-0.2c0,0-0.1-0.1-0.2,0.1v-0.4c0,0.3-0.1,0.1-0.1,0.2l0,0   c0-0.1,0-0.1-0.1-0.1c0,0.1,0,0.3,0,0.4c-0.1,0.1-0.1,0-0.2,0.1c0.1-0.2,0-0.3-0.1-0.3s-0.1,0.2-0.1,0.2s-0.1-0.1,0-0.2   s0,0.2,0,0.1s0.1-0.3,0-0.2s-0.1,0.5-0.2,0.2c0-0.1,0.1-0.1,0.1-0.2V30L81,30.2c0-0.1,0-0.1,0-0.1c-0.1,0.2-0.1-0.1-0.3,0.2   c0,0,0-0.2,0-0.3l0,0c0-0.2-0.1-0.2-0.2-0.1l0,0c0,0-0.1-0.1-0.2,0c0-0.2,0.4-0.7,0.2-0.5c-0.1-0.1-0.3,0.2-0.4,0.3   c0-0.1-0.1-0.2-0.2-0.2c-0.1-0.1-0.1-0.2-0.1-0.3l0,0c-0.1,0-0.1,0.1-0.2,0.1c-0.1-0.2-0.4-0.1-0.2-0.5c0.1,0,0.2-0.1,0.2-0.2   c-0.2,0.1,0.1-0.2-0.1,0s-0.2,0.2-0.2,0.3c-0.1,0-0.2-0.1-0.2-0.1v-0.1c0,0.1-0.1,0.1-0.2,0.1c0.2-0.2,0.2-0.3,0.1-0.2l-0.1,0.1   l0.1-0.2c0,0-0.3,0.2-0.2,0.1l0.1-0.1c-0.2,0-0.4,0.2-0.3,0l0.2-0.2c-0.1,0-0.2,0.1-0.2,0.2c0-0.2,0-0.2,0.2-0.4   c-0.5,0.2-0.7,0-0.8-0.2l0.1-0.1C78.5,27.3,78.2,27.6,78.2,27.5z M77.1,26.2L77,26.3L77.1,26.2C77.1,26.1,77.1,26.2,77.1,26.2z    M76.7,26C76.7,26,76.8,26,76.7,26C76.7,26,76.5,26.1,76.7,26L76.7,26z M75.9,24.5L75.9,24.5C75.8,24.5,75.9,24.5,75.9,24.5   c0.1,0,0.1-0.1,0.2-0.1l0,0c-0.1,0.2-0.2,0.3-0.3,0.4C75.8,24.7,75.9,24.6,75.9,24.5C75.8,24.6,75.9,24.5,75.9,24.5L75.9,24.5z    M75.9,24.3c0,0,0.1,0,0.1-0.1S76,24.3,75.9,24.3C76,24.3,75.9,24.4,75.9,24.3z M76.3,24.6c-0.1,0.1-0.2,0.1-0.3,0.1L76.3,24.6z    M76,25.4l0.1-0.1C76.1,25.4,76,25.4,76,25.4z M76.4,25.1v0.1C76.4,25.2,76.2,25.2,76.4,25.1z M76.1,22c-0.1,0.1-0.1,0.2-0.3,0.3   C75.9,22.2,76,22.1,76.1,22z M75.9,22C76,22,76,22,75.9,22C76,22,75.9,22.2,75.9,22L75.9,22z M60.9,21.3l0.2,0.1L61,21.5L60.9,21.3   z M81.9,17.6l-0.2,0.2c0,0,0-0.1-0.1-0.1c0-0.1,0.1-0.2,0.2-0.2S81.9,17.5,81.9,17.6L81.9,17.6z M83.1,22c0-0.1,0-0.2,0.1-0.2   S83.5,21.9,83.1,22L83.1,22z M83.7,23.9l-0.6-0.4C83.5,23.4,83.7,23.7,83.7,23.9L83.7,23.9z M85.4,26.2L85.4,26.2l-0.2-0.1   L85.4,26.2z M85.3,28c0,0-0.1-0.1-0.2,0S85.4,28,85.3,28L85.3,28z M83.1,32L83.1,32v-0.2V32z M114.6,29.8L114.6,29.8   c-0.1-0.1-0.3-0.1-0.3-0.2c-0.1,0.3-0.1,0.5,0,0.8s0.1,0.5-0.1,0.7c0.1,0,0.3,0,0.3,0c-0.1,0.3-0.5,0.2-0.4,0.4   c-0.2,0,0,0.2,0.1,0.4c0.1,0.2,0,0.1-0.1,0c0.1,0.2,0.1,0.5,0.1,0.7c0,0.4-0.1,0.7-0.3,1c0.1,0,0.4,0.5,0.4,0.6l-0.3-0.1   c-0.1,0-0.1,0.1-0.1,0.1v0.1c0,0.1,0,0.1-0.1,0.2l0,0c0,0.2,0.1,0.4-0.2,0.5c0.1,0-0.4-0.3-0.4-0.1c-0.1,0.4,0.1,0.2,0.1,0.5   l0.1,0.2c0.3,0.1-0.1,0.3,0.2,0.3c-0.2,0,0,0.6-0.5,0.3l-0.4-0.2c0,0.2,0.4,0.4,0.5,0.6c-0.1,0-0.1,0-0.2,0   c0.6,0.3-0.2,0.3,0.2,0.7c-0.3,0.2-0.3,0.8-0.8,0.8c0.1,0.3,0.2,0.6-0.1,0.8c0-0.1,0-0.2-0.1-0.2c-0.3,0.1-0.1,0.2-0.1,0.4   c-0.1-0.1-0.5,0.2-0.8,0.2c0.1,0.3,0.4,0.4,0.6,0.5c-0.4,0-0.3,0.2-0.3,0.4s0,0.5-0.3,0.4c0-0.1-0.1-0.5-0.4-0.4   c-0.7-0.1,0.2,0.7-0.2,0.8l0.5,0.2c-0.4,0,0,0.7-0.5,0.3c0.1,0.2-0.4,0.3,0.1,0.5c-0.7,0.3-0.6,1.4-1.6,1.2c0,0.1-0.2,0.2,0.1,0.4   s-0.1-0.3,0.1-0.2c0,0.1,0.1,0.2,0.1,0.2c-0.2,0.1-0.3,0.2-0.6-0.2c-0.5,0.2,0.5,0.9,0,1.2c-0.2-0.2-0.3-0.2-0.3,0l0.1,0.5   c-0.3,0.2-0.5-0.1-0.8-0.3c-0.1,0.2-0.2,0.4,0,0.6l-0.5-0.1c0.4,0.1,0.1,0.3,0.1,0.4v-0.1c-0.2-0.1-0.2,0.2-0.2,0.3   c0.2,0.1,0.4,0.1,0.5-0.1c0.1,0.2,0,0.3,0,0.5c-0.3-0.3-0.4,0.1-0.5,0.2s0.2,0.4,0.1,0.4s-0.2,0.2-0.3-0.1c0-0.1,0.2,0,0.2-0.2   c-0.2,0-0.4-0.2-0.4,0.1s0.6,0.4,0.2,0.5c0-0.1-0.1-0.2-0.2-0.4l-0.3,0.1l0.3,0.2c-0.1,0-0.1-0.1-0.2-0.1c0.2,0.3-0.2,0.4,0.1,0.8   c-0.1,0.2-0.4,0.1-0.5,0.2l0,0c-0.3,0-0.3,0.3-0.2,0.6H106c-0.1,0.1-0.2,0.3-0.1,0.5c-0.4,0-1-0.8-0.9-0.3   c-0.2,0.2,0.2,0.7,0.4,0.8c-0.5,0.2-0.4,1-1.1,0.9c0.1,0.1,0.2,0.2,0.1,0.3c-0.3,0.2-0.5,0.5-0.7,0.8s-0.5,0.5-0.9,0.4   c0-0.2-0.2-0.2-0.4-0.4c0.1,0.3-0.4-0.1,0,0.3c0.2,0.2,0.3,0.3,0.6,0.3c-0.2,0.4-0.6,0.9-1,0.8c0.2,0,0.2,0.2,0.2,0.3   c-0.3-0.4-0.6-0.2-0.6,0l0.2,0.2l-0.3-0.1c0,0.1,0.4,0.5,0,0.5c-0.1-0.1-0.2-0.1-0.3-0.2c0,0.2,0,0.4,0,0.5s0,0.2-0.1,0.2l0,0l0,0   l0,0l0,0H101l-0.5-0.2c0,0.1,0,0.4,0.2,0.4c-0.5,0.1-0.8,0.3-1.1,0.1c0,0.5-0.2,1.1-0.5,1.5c-0.2,0.2-0.3,0.4-0.5,0.5   S98.2,57,98,57.1l-0.1-0.2c-0.3,0,0.1,0.4-0.1,0.4c-0.1-0.2-0.4-0.3-0.4-0.6c-0.4,0-0.1,0.6-0.2,0.8c0.1,0.3,0-0.3,0.2,0.1   c0,0.1-0.5,0.1-0.3,0.5c-0.2-0.2-0.3-0.3-0.4-0.6v0.3c-0.5-0.3-0.1-1.1-0.6-1.5L96,56.5c-0.4-0.3,0.1-0.7-0.4-0.6   c0,0.3,0.2,0.9,0.4,1c-0.3,0.3,0.4,1,0,1.2c-0.2-0.2,0.3-0.3,0-0.5S95.8,58,95.5,58c0.3,0,0.4,0.5,0.3,0.7c-0.3,0-0.1-0.4-0.4-0.3   c0.1,0.2-0.1,0.6,0.3,0.6c0.2,0.6-0.4,0.1-0.3,0.5c-0.3-0.3-0.2-1-0.6-1c0.3,0.3-0.1,0.7,0.4,1.1c-0.2,0-0.4-0.3-0.4-0.5   c-0.3-0.1,0,0.9-0.5,0.2l0.2,0.4c-0.2-0.1-0.3-0.2-0.5-0.3c-0.2,0.1-0.2,0.8-0.5,0.2c0,0.1-0.4,0.3,0,0.5c0.3,0.1,0.1-0.4,0.5,0   c-0.4-0.3-0.3,0.2-0.3,0.4l-0.1-0.2c0,0.1-0.2,0.2-0.2,0.4c0-0.1-0.1-0.2-0.2-0.3l0.1,0.4c-0.2,0.3-0.4-0.5-0.6-0.2l0.1-0.4   c0,0.1-0.3-0.2-0.4,0c0.1,0.3,0.2,0.7,0.3,1c-0.1,0.2-0.2-0.2-0.3,0v-0.4c0-0.1-0.4-0.4-0.6-0.3s-0.1,0.7,0.2,0.8   c-0.2,0.1-0.3,0-0.4-0.2V61c-0.2,0.2,0.2,0.3,0.1,0.6c-0.2-0.1-0.6-0.3-1-0.4V61h-0.4c0-0.5-0.3-0.2-0.4-0.7   c-0.1,0-0.2,0.2-0.2,0.4c0.7,0.5,0.1,1.1,0.5,1.6c-0.3,0.4-1-1.3-1-0.2c0.1,0.1,0.2,0.4,0.3,0.5c-0.1,0.2,0.2,0.6-0.2,0.5   c0.1-0.4-0.6-0.5-0.4-1c0.1,0.2,0.3,0.1,0.3,0c-0.2-0.2-0.3-0.6-0.6-0.5s-0.3,0.3-0.2,0.6s0.2-0.2,0.3,0.2   c-0.3,0.3-0.6-0.2-0.4,0.5c0.2-0.2,0.4,0.2,0.5,0.4l-0.2,0.3l-0.1-0.2c-0.5,0,0.1,0.5-0.3,0.6L88,63.6c-0.1-0.4,0.6-0.1,0.2-0.7   C88,63,88,63.4,87.7,63.3c0-0.1,0.1-0.1,0.1-0.2s-0.6-0.8-0.7-0.1c-0.1,0.3,0.1,0.2,0.2,0.5c-0.3,0.3-0.3,0.6-0.6,0.7   c-0.2-0.5-0.5,0.2-0.4-0.4c0.3,0.2,0.8-0.1,0.7-0.6c-0.4-0.5,0.3-0.1,0.1-0.7c-0.3,0.2-0.6-0.4-0.8-0.7c-0.1,0-0.1,0.2-0.1,0.3   c0.1,0.3,0.2,0.3,0.4,0.6c-0.4,0.1-0.7,0.5-0.7,0.9c-0.2-0.1-0.3-0.5-0.2-0.6c-0.4,0.3-0.8,0.5-1.2,0.6c0.4,0.3-0.1,0.4-0.1,0.6   c-0.1-0.2-0.2-0.3-0.3-0.5C84,64,84,63.3,83.8,63.5c-0.1,0.4-0.3,0.7-0.6,1c-0.6-0.2-0.9,0.5-1.2,0.7c-0.3-0.1-0.4-0.7-0.7-0.6l0,0   l0,0c-0.1,0.1,0.4,0.4,0,0.3v-0.1c0,0.1-0.1,0.1-0.2,0.1s0,0.4,0,0.5c-0.1,0-0.2,0-0.3,0c-0.2-0.1-0.2-0.1-0.2,0l0.2,0.1l0.2,0.1   c0.2,0.1,0.4,0.2,0.6,0.4c0,0.4,0,0.4,0.1,0.3c0,0,0,0.1-0.1,0.1c0.1-0.3,0.1,0,0.2-0.2c0.2,0.1,0.3,0.1,0.5,0.2   c0,0-0.2,0.2-0.1,0.2l0.1-0.2v0.1c0.1-0.1,0.1-0.2,0.1-0.2c0.6,0,0.8,0.7,1.3,0.9c0.1,0.2,0.3,0.1,0.4,0.1c0.2,0.5,0.4,0.9,0.8,0.8   c0,0-0.3,0.7-0.5,0.8C84,69.5,84,68.7,83.6,69c0,0,0.2-0.3,0.1-0.3c-0.4,0.4-0.6,0-0.7-0.5l0.1-0.1c0-0.1-0.2,0.2-0.2,0.1   S83,68.1,83,68c-0.1,0.2-0.1,0.1-0.2,0.2c0-0.1,0.1-0.2,0.1-0.3l-0.1,0.2c-0.3,0.5-0.2-0.1-0.4,0.1l0.1-0.1   c-0.3,0.2-0.5,0.1-0.8,0.1c0.1-0.1,0.1-0.2,0.2-0.3c-0.1,0.2-0.2,0.3-0.3,0.3c0.1-0.2-0.2,0.2-0.2,0l0,0c-0.2,0.2,0-0.2-0.2,0.1   l0.1-0.2c-0.2,0.3,0-0.2-0.1-0.1v0.1C81,68.2,81,68,81,68.1l0,0c-0.1,0-0.1-0.2-0.2,0.1c0.1-0.2,0.1-0.1,0.2-0.4   c-0.3,0.1-0.6,0-0.9-0.2c0-0.1,0-0.2,0.1-0.3l0,0l-0.1,0.1c-0.1,0.1-0.1,0.1-0.2,0.2l0,0l0,0L79.4,67l0,0l0,0l0,0   c-0.1,0.1-0.2,0-0.2,0v0c-0.1,0-0.1-0.1-0.2-0.1c0-0.1,0.2-0.3,0.1-0.3c-0.2,0.3-0.2,0-0.4,0.3c0-0.1,0-0.3-0.2-0.2   c0.1-0.1,0.3-0.3,0.3-0.3v-0.1l0,0l-0.1-0.1l0,0l0,0c-0.1,0-0.1,0-0.2,0s-0.3-0.1-0.2-0.3c0,0.1,0.1,0.1,0.2,0.2c0,0,0.1,0,0.1,0.1   c0,0,0,0,0-0.1L78.5,66l0,0l0,0l0,0l0,0l-0.1-0.1l0,0l-0.1-0.1l0,0c0,0,0,0-0.1-0.1l0,0c0,0-0.1,0-0.1,0.1l0.1-0.6l0,0l0,0v-0.3   c0.1,0,0.1,0.1,0.1,0.1c0.1,0,0.2,0,0.1,0c0.1,0,0-0.1,0-0.1l0,0c-0.1-0.1-0.2-0.3,0-0.3l0,0c-0.1,0-0.3-0.2-0.2-0.2l0.2,0.1h0.1   l0,0l0,0l0,0l0,0c0,0-0.1-0.1,0-0.1l0,0l0.1-0.1l0,0c-0.2-0.1,0,0-0.2-0.1c0.2,0.1-0.1-0.1,0.2,0l0.2,0.1c0,0-0.2-0.2-0.3-0.2h0.1   c-0.4-0.2,0.1,0-0.2-0.2c0.2,0,0.1-0.1,0.3-0.1c-0.1-0.1-0.2-0.2-0.1-0.2l0.1,0.1c0.1,0,0,0,0-0.1c0.1,0,0.3,0,0.4,0   c-0.1-0.1-0.3-0.2-0.4-0.2c0.4,0.1-0.2-0.2,0.2-0.1c0,0,0.2,0.1,0.3,0.1c0.4,0.1-0.2-0.2,0-0.2l-0.3-0.1c0.2,0-0.1-0.2,0.2,0   c-0.1-0.1,0.1,0-0.2-0.1c0.3,0-0.1-0.3,0.5-0.2c0,0,0-0.1-0.1-0.1s0.1,0.1,0,0.1s-0.1-0.1-0.1-0.1s0.1,0,0.3,0.1s-0.5-0.3-0.3-0.3   s0.2,0.1,0.2,0l-0.2-0.1c0.1,0,0.3,0.1,0.5,0.2c0,0,0-0.1-0.1-0.2l0.3,0.1c-0.2,0-0.1-0.1-0.2-0.1h0.1c0.1,0,0,0,0-0.1   c-0.1,0-0.2,0-0.2,0c-0.1,0-0.1-0.1-0.2-0.1c0.2,0.1,0.2,0,0.2,0L79.3,62c0,0,0,0,0.2,0s-0.1,0,0,0s0.3,0.1,0.2,0s-0.4-0.2-0.2-0.2   l0.2,0.1h0.1l-0.2-0.1h0.1c-0.2-0.1,0-0.1-0.2-0.2h0.2l0,0c0.1,0,0.1-0.1,0-0.1l0,0c0,0,0-0.1-0.1-0.1c0.2,0,0.7,0.3,0.5,0.1   c0,0-0.3-0.2-0.4-0.2c0.2,0-0.1-0.2,0.2-0.2c-0.1,0-0.1-0.1-0.2-0.1c0.1-0.1-0.1-0.3,0.3-0.3c0.1,0.1,0.2,0.1,0.3,0.1   c-0.2-0.1,0.2,0-0.1-0.1c-0.1-0.1-0.2-0.1-0.3-0.1c-0.1-0.1,0-0.2,0.2-0.2c-0.1,0-0.1,0-0.2-0.1c0.3,0.1,0.3,0.1,0.2,0l-0.2-0.1   h0.2c0,0-0.3-0.2-0.2-0.1c0.1,0,0.1,0,0.2,0c-0.1-0.1-0.3-0.2-0.2-0.2H80c-0.1-0.1-0.1-0.1-0.2-0.1c0.1,0,0.3,0,0.4,0   c-0.5-0.3-0.4-0.5-0.3-0.7H80c0.1,0-0.2-0.1-0.1-0.1s0.3,0.1,0.4,0.2c0.2,0-0.2-0.2-0.2-0.2s0.1,0.1-0.1,0s0.2,0-0.1-0.1   c0.1,0,0.3,0.1,0.4,0.1l-0.1,0c0.3,0.1,0.5,0.3,0.8,0.4l0,0c0.3,0.1,0.3,0.2,0.4,0.1c-0.2-0.1-0.4-0.2-0.6-0.2   c0-0.1-0.6-0.2-0.5-0.3s0,0.1,0.2,0.1s-0.1-0.1,0-0.1c-0.1,0-0.3-0.1-0.4-0.2c0.1,0,0.2,0.1,0.3,0.1c-0.1-0.1-0.2-0.2-0.3-0.2   c-0.3-0.1,0.1,0-0.1-0.2c0.2,0.1,0.5,0.2,0.6,0.2c-0.2-0.1-0.3-0.2-0.6-0.3c0.1,0,0.3,0.1,0.4,0.1c0.2,0-0.4-0.2,0.1-0.1l-0.2-0.1   h0.3c0,0-0.3-0.2,0.1-0.1c0,0,0-0.1-0.2-0.2s0.2,0.1-0.2,0c0.3,0.1,0-0.1-0.1-0.1h0.1c0,0,0-0.1-0.1-0.1l0.2,0.1L80,58   c-0.1-0.1,0.3,0.1,0.3,0l0.1,0.1c0,0,0.2,0,0.1,0L80,57.9c-0.1-0.1,0.2,0.1,0,0l0.2,0.1c0.1,0,0.3,0.1,0.3,0   c-0.1-0.1-0.3-0.2-0.4-0.2c0,0,0.1,0,0.2,0c0-0.1-0.2-0.1-0.3-0.2c0.1,0,0.3,0,0.5,0.1l0.3,0.2l0,0c0.2,0.1,0.2,0,0.4,0.2   c0,0,0-0.1-0.1-0.1c-0.4-0.1-0.5-0.3-0.9-0.4c-0.1-0.1,0.9,0.3,0.4,0c-0.1,0-0.3-0.1-0.3-0.1s-0.3-0.1-0.2-0.2s0.4,0.1,0.6,0.2   c-0.1,0-0.1,0-0.1,0l0.4,0.1c0,0,0-0.1-0.2-0.2s0,0.1-0.2,0c0-0.1,0.3,0-0.1-0.2c0,0-0.2,0-0.3-0.1L80.1,57l0.1,0.1   c0.1,0-0.2-0.1-0.2-0.2l0.3,0.1c0.2,0.1-0.1,0.1,0.3,0.2c0,0-0.2-0.1-0.1-0.1l0.1,0.1c0,0,0.6,0.2,0.3,0c-0.1-0.1-0.1-0.1-0.3-0.1   s-0.2-0.2-0.2-0.2c0.3,0.1,0.1-0.1,0.3,0.1c-0.2,0-0.2,0.1,0.1,0.2s-0.1,0,0.3,0.2c0-0.1,0.4,0.1,0.6,0.1l-0.1-0.1   c-0.2-0.1-0.2-0.1-0.4-0.1c0.1-0.1,0-0.2-0.2-0.3c0.1,0,0.2,0.1,0.3,0.1c0-0.1,0-0.2,0.1-0.2c-0.3-0.1-0.1-0.1-0.2-0.2l0.3,0.1   c-0.1-0.1,0.2,0.1,0.2,0c-0.1-0.1-0.2-0.2-0.2-0.3c0.3,0,0.1-0.2,0.1-0.3c0.2,0.1,0.3,0.1,0.5,0.1c0,0-0.3-0.1-0.2-0.1H82   c-0.1,0,0.2-0.1-0.2-0.2l0.3,0.1c0,0,0,0-0.1-0.1c0.1,0,0.2,0.1,0.3,0.1c0.2,0,0-0.1,0-0.1h-0.2c-0.1-0.1,0.1-0.1,0-0.2l0.2,0.1   l-0.1-0.1c0.2,0.1,0.3,0.1,0.2,0l0.4,0.2c-0.1,0-0.2-0.1-0.4-0.2s-0.1,0.1,0,0.1s0,0-0.1-0.1c0.1,0,0.3,0.1,0.4,0.2l0,0l0.1,0.1   c0,0-0.2,0-0.2-0.1c0.2,0.1,0.3,0.2,0.2,0.2c-0.3,0,0.1,0.2,0,0.2c-0.2-0.1-0.3-0.2-0.5-0.3c-0.1,0,0,0-0.1,0   c0.2,0.1,0.4,0.2,0.5,0.3l-0.2-0.1c0.1,0.1,0.3,0.2,0.2,0.2c-0.1,0.1-0.2,0.2-0.2,0.3l0,0.2c0.3,0.2,0.1,0.2,0.2,0.3   c-0.2,0,0.1,0.3-0.2,0.2c0.1,0.2,0.1,0.4,0,0.6L82.2,58c0.2,0.1-0.2,0-0.1,0c0.2,0,0.2,0.1,0.4,0.2c-0.2,0,0,0.2,0.1,0.3l-0.2-0.1   c0.3,0.2,0,0.2-0.1,0.2s-0.2-0.1-0.2,0c0.1,0.1,0.3,0.2,0.4,0.3C82.4,59,82.4,59,82.3,59c0.3,0.3,0,0.5,0.1,0.8l-0.2-0.1   c0.4,0.4-0.1,0.5,0,0.7l-0.1,0.2c-0.1,0,0,0.2,0.3,0.2c-0.1,0,0.1,0.2-0.2,0.1c-0.1,0,0.1,0.1,0.2,0.2c-0.2,0.1-0.2,0.1-0.1,0.2   c-0.1,0-0.1-0.1-0.2-0.1c0.1,0.1-0.1,0.1,0.3,0.2C82,61.7,82.4,62,82,62c0.1,0,0.1,0.1,0.2,0.1c0,0.1-0.2,0.1-0.2,0.2l0.6-0.3   l0.2,0.3c-0.1-0.7,0.6-0.6,0.8-1c0.6,0,1-0.8,1.5-0.5c0.7-0.7,1.5-1.2,2.4-1.6l0.1,0.5c0-0.4,0.2,0.2,0.4,0c-0.4-0.2,0-0.5,0-0.8   c0.6,0.1,0.9-0.5,1.1-1l0.2,0.3c0.1-0.7,0.8-0.5,1.2-0.7c0.1,0.1,0.3,0.3,0.4,0.2c0-0.6,0.1-0.6,0.3-1.1c0.3-0.2,0.7-0.3,1.1-0.3   c0.3-0.5,0.7-0.9,1.2-1.2s0.9-0.7,1.2-1.1l0.3,0.2c0.2-0.6,0.6-1,1.2-1.3l0.7-0.5c0.2-0.2,0.4-0.4,0.5-0.6l0.3,0.5   c0.3,0,0.4-0.6,0-0.8c0.1,0,0.2-0.1,0.2-0.1l0.1-0.1l0,0l0,0l0,0v-0.1C97.9,51,98,51,98.2,51l0,0c0.3-0.1,0.1-0.5,0.2-0.7   c0.2-0.1,0.5-0.2,0.7-0.4c0.1-0.1,0.2-0.3,0.3-0.4c0.1,0.1,0.2,0.3,0.3,0.2c0-0.3,0.7-0.4,0-0.8c0.7-0.1,0.7-1.2,1.5-1.3   c-0.2-0.1-0.1-0.2-0.2-0.4c0.4-0.4,1-0.5,1-1.1c0.1,0,0.2,0.3,0.3,0.2s-0.2-0.2-0.2-0.4c0.1-0.2,0.2-0.4,0.3-0.5   c0.2-0.2,0.3-0.3,0.5-0.4c0.4-0.2,0.7-0.5,1-0.8c0.3-0.6,0.6-1.3,1-1.8c0.2-0.3,0.4-0.6,0.6-0.8c0.2-0.3,0.4-0.5,0.5-0.8l0.1,0.1   c-0.3-0.7,1-0.6,0.5-1.3c0.2,0,0.2-0.3,0.5-0.1c-0.2-0.5,0.7-0.6,0.6-1.2c0.5-0.3,0.3-0.9,0.8-1.2c0,0.1,0,0.2,0.2,0.3   c0.4-0.1-0.4-0.7,0.3-0.5c0-0.1-0.3-0.2-0.3-0.2c0.3-0.5,0.5-1.1,0.6-1.6c0.1-0.6,0.1-1.2,0.2-1.8c0.6-0.7,1.2,0.3,0.8-0.5   c0.1,0-0.3-0.1-0.1-0.1c-0.1-0.3,0.9-0.2,0.6-0.5c-0.4,0-0.2-0.2-0.5-0.2c0.4-0.4,0.8-0.5,0.5-1l0.2,0.1c-0.2-0.2-0.3-0.5-0.3-0.8   s-0.2-0.6-0.5-0.8c0-0.3,0-0.6,0-1s0-0.6,0-1V27l0,0l0,0l0,0l0,0l0,0v-0.3v-0.3v-0.1c0-0.1-0.1-0.2-0.1-0.3   c-0.3-0.9-0.8-1.8-1.4-2.5c-0.5-0.9-1.3-1.6-2.1-2.2c-0.4-0.3-0.8-0.5-1.3-0.8s-0.9-0.5-1.4-0.7c-0.2-0.4-0.3-0.5-0.4-0.6   s-0.3,0-0.6,0c0-0.1,0.1-0.1,0.1-0.2c-0.1,0.5-0.4,0-0.5,0.5c-0.7-0.1-1.5-0.1-2.2,0.2c0.1-0.1,0.1-0.5,0-0.4l-0.1,0.3l-0.1-0.1   c-0.1,0.1-0.1,0.3,0,0.5c-0.5,0.2-1,0.4-1.5,0.6l-0.3,0.1h0.1h-0.1h-0.2l-0.5,0.2L97.4,21l-0.3,0.1L97,21.3l-0.3,0.2l-0.3,0.2   L96,22l-0.5,0.4c-0.2,0.1-0.3,0.3-0.4,0.5c-0.3,0.2-0.6,0.4-0.8,0.6c-0.1,0.1-0.2,0.3-0.3,0.4s-0.2,0.3-0.3,0.4   c-0.4,0.2-0.8,0.5-1.3,0.7c-0.4,0.2-0.8,0.5-1.1,0.9c-0.7,0.6-1.3,1.4-1.7,2.3c0,0-0.9-1-0.6-1.8c-0.1-0.7,0.2-1.3,0.7-1.8l0.3-0.4   c0.1-0.1,0.2-0.2,0.3-0.3c0.2-0.2,0.3-0.5,0.4-0.9c0.1-0.1,0.5,0.4,0.6,0.1c0.1-0.7,0.5-1.4,1.1-1.8c0.6-0.5,1.4-0.8,2.2-1v0.2   c0.3-0.1,0.1-0.7,0.4-0.8c0.1,0.1,0,0.2,0.2,0.3c-0.2-0.3,0.3-0.5,0.2-0.7c0.2,0,0.3,0.3,0.6,0.3l-0.1-0.4   c-0.1-0.5,0.1-0.7,0.4-0.8s0.6-0.1,0.7-0.5c0,0.1,0,0.2,0.1,0.2c0.1-0.1,0.2-0.3,0.3-0.4c0.1-0.1,0.2-0.2,0.4-0.3l0,0   c0.7-0.4,1.4-0.8,2.2-1.1c0,0.2,0,0.4,0.1,0.6c0-0.4,0.3-0.6,0.6-0.8c0.1,0.2,0.2,0.1,0.4,0s0.3-0.3,0.5-0.2V16   c0.2-0.5,0.4,0.2,0.6-0.3l0.1,0.2l0.1,0.2c0.1-0.6,0.4,0.3,0.6,0V16c0.2-0.1,0.3,0.2,0.5,0.1v0.1c0.5-0.1,0.7,0.3,0.7-0.2   c0.1,0.4-0.5,0.1-0.3,0.7c0.7-0.1,1.5-0.1,2.2,0.1s1.4,0.5,2,0.9c0,0.2,0.1,0.4,0,0.5c0.2,0,0.5,0.2,0.8,0.1c0,0-0.1,0.3,0,0.3   c0.1,0.3,0.6-0.3,0.6,0.1c-0.2,0-0.3,0.1-0.4,0.3c0.4-0.2,0.6,0.1,0.9,0.2c-0.1,0-0.2,0-0.3,0.1c0.2-0.1,0.4,0,0.4,0.2   c0.1,0.1,0.1,0.3,0.3,0.3l-0.3,0.1c0.1,0.5,0.5-0.3,0.6,0.1c-0.1,0-0.2,0.1-0.3,0.2c0.3,0,0.5,0.1,0.7,0.2c0.2,0.2,0.3,0.3,0.5,0.4   h-0.1c0.1,0.2,0.3,0.3,0.4,0.5s0.3,0.4,0.4,0.5c0,0.2-0.6,0.3-0.3,0.6c0.2-0.2,0.4,0,0.5,0.1s0.2,0.2,0.5-0.1   c0,0.2,0.1,0.4,0.1,0.7c0,0.2,0.1,0.4,0.2,0.5c-0.3-0.1-0.6,0.4-0.7,0.1l-0.1,0.2l-0.1,0.2c-0.2,0,0-0.2-0.2-0.1   c0.1,0.1,0.4,0.4,0.4,0.6c0.4,0.2,1.1,0.2,1.3,0.7c-0.2-0.2-0.5,0.1-0.6,0.1l0.5,0.2c0.3,0.1,0.6,0.3,0.6,0.3   c0,0.2-0.4,0.1-0.3,0.3c0.1,0,0.2,0.1,0.4,0.1c0,0,0,0.2,0,0.3v0.1l0,0l0,0l0,0l0,0l0,0c-0.1,0.1-0.2,0.1-0.3,0.1   c-0.2,0.1-0.1-0.2-0.3-0.1c0,0.3,0.2,0.3,0.2,0.6H114c-0.1,0.2,0.2,0.5,0.5,0.4c0-0.1-0.3,0-0.2-0.2c0.3,0.1,0.4,0.5,0.4,0.8   c-0.1-0.1-0.2-0.1-0.4-0.2c0.3,0.3,0.6,0.8,0.6,1.2c-0.1,0.2,0,0.2-0.1,0.2L114.6,29.8z M114.8,28.9c-0.1-0.2,0.2-0.1,0.2-0.1   c0.1,0-0.2-0.2-0.1,0L114.8,28.9z"></path>
</g>
<g id="Layer_2">
</g>
</svg>
