<?xml version="1.0" encoding="UTF-8"?>
<svg id="Layer_2" data-name="Layer 2" xmlns="http://www.w3.org/2000/svg" viewBox="0 0 250 118.33">
  <defs>
    <style>
      .cls-1 {
        fill: #0f8b87;
      }
    </style>
  </defs>
  <g id="Home">
    <g>
      <path class="cls-1" d="m32.07,34.64l-2.04-.44c-2.38-.48-3.25-2.57-3.54-3.69l-4.32-13.29-4.95,13.29-1.31,4.12-2.04-.44c-2.38-.48-3.25-2.57-3.54-3.69L3.54,9.51C1.75,3.88.29,2.62,0,2.52l.34-.83c.73-.34,2.09-.68,3.44-.68,1.17,0,2.33.24,2.96.87,1.12,5.05,6.5,22.51,8.49,26.98,0,0,.39-1.99,1.02-3.59l4.37-12.91-.92-2.86c-1.79-5.63-3.25-6.89-3.54-6.99l.34-.83c.73-.34,2.09-.68,3.44-.68,1.16,0,2.33.24,2.96.87,1.11,5.05,6.5,22.51,8.49,26.98,0,0,.39-1.99,1.02-3.59l5.72-16.89c.44-1.07.73-2.13.73-3.15s-.29-1.94-1.02-2.72l.34-.83c.78-.39,1.75-.48,2.67-.48,1.21,0,2.18.19,2.82.48-.19,1.94-1.16,4.95-1.75,6.45l-8.54,22.37-1.31,4.12Z"/>
      <path class="cls-1" d="m58.08,20.57l-11.69-.14c.05.73.05,1.26.05,1.94,0,5.24,3.01,8.2,7.13,8.2,2.76,0,5.82-1.6,7.57-4.27,0,0,.19.58.19,1.16,0,3.74-4.85,6.8-9.46,6.8-5.14,0-9.8-3.4-9.95-11.55,0-7.81,4.03-13.68,10.19-13.68,8.4,0,8.78,7.47,8.78,9.85v1.12c-.92.53-1.8.58-2.82.58m-11.84-2.08l10.38-.19c0-3.11-1.6-6.55-5.19-6.55-3.2,0-4.32,2.96-5.19,6.74"/>
      <path class="cls-1" d="m67.16,14.41c0,5.19,12.57,4.46,12.57,12.47,0,4.32-3.49,7.38-8.68,7.38-3.69,0-7.38-2.28-7.38-5,0-.53.14-1.12.48-1.7.39,1.84,4.17,3.88,6.94,3.88,2.28,0,4.66-.87,4.66-3.45,0-4.22-12.23-4.46-12.23-11.84,0-3.88,3.49-7.13,8.1-7.13,3.79,0,5.43.97,6.65,1.7.34,1.12.39,3.74-.78,4.9l-.87-.19c-1.07-3.3-3.59-4.08-5.39-4.08-2.57,0-4.08,1.45-4.08,3.06"/>
      <path class="cls-1" d="m88.22,9.75h5.92c1.46,0,1.7-.58,1.7-.58,0,0,.1.39.1.92,0,1.7-1.75,2.62-3.74,2.62-.87,0-2.33-.1-3.25-.1-.29,0-.53,0-.68.05l-.05,12.32c0,3.11.39,5.34,3.83,5.34,1.99,0,4.27-.82,4.51-1.36.19.29.29.68.29,1.02,0,1.94-2.86,4.27-6.4,4.27-5.48,0-6.5-2.91-6.5-7.86,0-2.67.29-6.79.29-9.8,0-1.65-.1-3.2-.48-3.74-1.12-1.55-2.28-1.65-2.23-1.65l.24-1.45c.19,0,2.38.05,4.66-4.03h2.38l-.58,4.03Z"/>
      <path class="cls-1" d="m129.99,33.62c-.1-.68-.15-1.45-.1-2.33l.1-11.64c.05-4.66-.83-6.74-3.93-6.79-3.25,0-5.38,1.6-6.5,2.77-.05,2.96-.34,14.31.49,18h-4.75c-.1-.68-.15-1.45-.1-2.33l.1-11.64c.05-4.66-.82-6.74-3.93-6.79-3.54,0-5.77,2.04-6.84,3.3,0,1.99,0,8.69.1,13.83,0,1.46.19,2.72.39,3.64h-4.85v-.19l.19-16.35c.1-5.68-2.47-5.87-2.47-5.87v-.87c.87-.53,2.33-1.21,4.32-1.21,2.33,0,2.62,1.84,2.47,4.08,0,0-.1.44-.24,1.36,1.46-2.43,4.56-5.53,9.32-5.53,3.11,0,5.34,2.38,5.77,5.09,1.5-2.28,4.37-5.09,8.93-5.09,3.4,0,5.72,2.81,5.82,5.77.1,2.04-.39,14.7.49,18.83h-4.75Z"/>
      <path class="cls-1" d="m140.04,33.62v-.19l.39-16.35c.19-5.68-2.33-5.87-2.33-5.87v-.87c.87-.53,2.33-1.21,4.32-1.21,2.33,0,2.57,1.84,2.43,4.08,0,0-.29,5.77-.29,16.79,0,1.41.1,2.72.29,3.64h-4.8Zm2.13-33.62c1.36,0,2.57,1.16,2.57,2.52s-1.21,2.62-2.57,2.62c-1.45,0-2.62-1.26-2.62-2.62s1.16-2.52,2.62-2.52"/>
      <path class="cls-1" d="m165.76,33.62c-.1-.68-.15-1.45-.1-2.33l.1-11.64c.05-4.66-.83-6.74-3.93-6.79-3.54,0-5.77,2.04-6.84,3.3,0,1.99,0,8.69.1,13.83,0,1.46.19,2.72.39,3.64h-4.85v-.19l.19-16.35c.1-5.68-2.43-5.87-2.43-5.87l-.05-.87c.87-.53,2.33-1.21,4.32-1.21,2.33,0,2.62,1.84,2.47,4.08l-.24,1.36c1.45-2.43,4.56-5.53,9.32-5.53,3.4,0,5.72,2.81,5.82,5.77.1,2.04-.39,14.7.49,18.83h-4.76Z"/>
      <path class="cls-1" d="m176.09,14.41c0,5.19,12.57,4.46,12.57,12.47,0,4.32-3.49,7.38-8.68,7.38-3.69,0-7.38-2.28-7.38-5,0-.53.14-1.12.48-1.7.39,1.84,4.17,3.88,6.94,3.88,2.28,0,4.66-.87,4.66-3.45,0-4.22-12.23-4.46-12.23-11.84,0-3.88,3.49-7.13,8.1-7.13,3.79,0,5.43.97,6.65,1.7.34,1.12.39,3.74-.78,4.9l-.87-.19c-1.07-3.3-3.59-4.08-5.39-4.08-2.57,0-4.08,1.45-4.08,3.06"/>
      <path class="cls-1" d="m195.39,9.75h5.92c1.46,0,1.7-.58,1.7-.58,0,0,.1.39.1.92,0,1.7-1.75,2.62-3.74,2.62-.87,0-2.33-.1-3.25-.1-.29,0-.53,0-.68.05l-.05,12.32c0,3.11.39,5.34,3.83,5.34,1.99,0,4.27-.82,4.51-1.36.19.29.29.68.29,1.02,0,1.94-2.86,4.27-6.4,4.27-5.48,0-6.5-2.91-6.5-7.86,0-2.67.29-6.79.29-9.8,0-1.65-.1-3.2-.48-3.74-1.12-1.55-2.28-1.65-2.23-1.65l.24-1.45c.19,0,2.38.05,4.66-4.03h2.38l-.58,4.03Z"/>
      <path class="cls-1" d="m220.09,20.57l-11.69-.14c.05.73.05,1.26.05,1.94,0,5.24,3.01,8.2,7.13,8.2,2.76,0,5.82-1.6,7.57-4.27,0,0,.19.58.19,1.16,0,3.74-4.85,6.8-9.46,6.8-5.14,0-9.8-3.4-9.95-11.55,0-7.81,4.03-13.68,10.19-13.68,8.4,0,8.78,7.47,8.78,9.85v1.12c-.92.53-1.8.58-2.82.58m-11.84-2.08l10.38-.19c0-3.11-1.6-6.55-5.19-6.55-3.2,0-4.32,2.96-5.19,6.74"/>
      <path class="cls-1" d="m225.14,33.62c0-2.91.19-9.8.19-16.55,0-5.68-2.09-5.87-2.38-5.87v-.87c.87-.53,2.33-1.21,4.32-1.21s2.33,1.16,2.33,2.77c0,.39-.05.82-.15,1.31l-.24,2.13c.15-.34,3.06-6.31,7.52-6.31,2.18,0,3.35,1.31,3.35,2.91,0,1.16-.82,2.48-2.48,2.48-.29,0-.58,0-.92-.1-.53-1.36-1.5-1.65-2.23-1.65-3.83,0-4.95,7.38-4.95,10.67,0,1.7,0,8.59.49,10.29h-4.85Z"/>
      <path class="cls-1" d="m49.53,66.9c0,4.22-4.95,6.99-11.01,6.99-9.12,0-14.07-6.89-14.07-15.91,0-10.09,6.21-17.22,15.53-17.22,4.17,0,8.39,1.84,9.46,4.03,0,.97-1.36,3.69-3.06,4.42l-.78-.63c0-1.26-1.8-4.9-6.21-4.9-6.7,0-9.61,5.92-9.61,12.23,0,7.57,3.54,14.7,10.87,14.7,2.81,0,6.94-1.5,8.68-4.71.15.29.19.73.19,1.02"/>
      <path class="cls-1" d="m73.84,71.8v.87c-.92.58-3.11,1.21-4.51,1.21-3.25,0-3.69-4.03-3.69-4.75-.92,2.96-4.37,4.75-6.94,4.75-4.56,0-6.65-3.15-6.65-6.26,0-4.71,4.56-7.28,9.8-7.28,1.21,0,2.43.19,3.64.49.05-.97.1-1.99.1-2.91,0-3.83-.63-7.04-4.56-7.04-2.28,0-3.74,1.7-3.74,3.45,0,.15.05.34.05.49-.49.34-1.07.48-1.65.48-1.21,0-2.33-.78-2.33-2.18,0-2.91,4.03-4.46,7.76-4.46,5.34,0,8.78,1.99,8.78,6.94,0,1.02-.1,2.04-.1,9.41,0,1.75.24,4.12.68,5.05.92,1.84,3.2,1.75,3.35,1.75m-8.35-9.8s-9.07.1-9.07,4.8c0,1.65,1.11,3.59,3.78,3.59,2.43,0,4.66-1.31,5.14-2.33,0-1.02.15-6.06.15-6.06"/>
      <path class="cls-1" d="m93.05,73.25c-.1-.68-.15-1.45-.1-2.33l.1-11.64c.05-4.66-.82-6.74-3.93-6.79-3.54,0-5.77,2.04-6.84,3.3,0,1.99,0,8.69.1,13.83,0,1.46.19,2.72.39,3.64h-4.85v-.19l.19-16.35c.1-5.68-2.43-5.87-2.43-5.87l-.05-.87c.87-.53,2.33-1.21,4.32-1.21,2.33,0,2.62,1.84,2.47,4.08l-.24,1.36c1.45-2.43,4.56-5.53,9.32-5.53,3.4,0,5.72,2.82,5.82,5.77.1,2.04-.39,14.7.49,18.83h-4.75Z"/>
      <path class="cls-1" d="m105.84,49.38h5.92c1.46,0,1.7-.58,1.7-.58,0,0,.1.39.1.92,0,1.7-1.75,2.62-3.74,2.62-.87,0-2.33-.1-3.25-.1-.29,0-.53,0-.68.05l-.05,12.32c0,3.11.39,5.34,3.83,5.34,1.99,0,4.27-.82,4.51-1.36.19.29.29.68.29,1.02,0,1.94-2.86,4.27-6.4,4.27-5.48,0-6.5-2.91-6.5-7.86,0-2.67.29-6.79.29-9.8,0-1.65-.1-3.2-.48-3.74-1.12-1.55-2.28-1.65-2.23-1.65l.24-1.45c.19,0,2.38.05,4.66-4.03h2.38l-.58,4.03Z"/>
      <path class="cls-1" d="m132.48,60.2l-11.69-.14c.05.73.05,1.26.05,1.94,0,5.24,3.01,8.2,7.13,8.2,2.77,0,5.82-1.6,7.57-4.27,0,0,.19.58.19,1.16,0,3.74-4.85,6.79-9.46,6.79-5.14,0-9.8-3.4-9.95-11.55,0-7.81,4.03-13.68,10.19-13.68,8.39,0,8.78,7.47,8.78,9.85v1.12c-.92.53-1.8.58-2.82.58m-11.84-2.09l10.38-.19c0-3.11-1.6-6.55-5.19-6.55-3.2,0-4.32,2.96-5.19,6.74"/>
      <path class="cls-1" d="m141.4,73.25c0-2.91.19-9.8.19-16.55,0-5.68-2.09-5.87-2.38-5.87v-.87c.87-.53,2.33-1.21,4.32-1.21s2.33,1.16,2.33,2.77c0,.39-.05.82-.15,1.31l-.24,2.13c.15-.34,3.06-6.31,7.52-6.31,2.18,0,3.35,1.31,3.35,2.91,0,1.16-.82,2.48-2.48,2.48-.29,0-.58,0-.92-.1-.53-1.36-1.5-1.65-2.23-1.65-3.83,0-4.95,7.38-4.95,10.67,0,1.7,0,8.59.49,10.29h-4.85Z"/>
      <path class="cls-1" d="m159.06,59.33c0-9.8-.1-16.25-.1-16.25,0-2.72-.87-4.17-2.28-4.37v-.87s1.65-1.21,3.98-1.21c2.47,0,3.11,1.46,3.06,4.41-.05,2.33-.24,4.17-.34,8.01-.05,1.55-.1,1.7-.29,2.43,1.94-1.75,4.27-2.82,6.74-2.82,4.56,0,9.07,3.54,9.07,11.84,0,6.55-3.88,13.39-11.5,13.39-3.49,0-6.94-1.16-7.86-3.2-.83-1.84-.49-4.66-.49-11.35m4.27-6.26v.1c0,5.63.05,9.8.19,12.86.19,3.88,1.02,5.43,4.42,5.43,5.43,0,6.45-6.4,6.45-10.14,0-5.97-3.01-9.46-7.13-9.46-1.7,0-2.86.48-3.93,1.21"/>
      <path class="cls-1" d="m182.87,61.56c.1-4.22.1-6.7-.73-9.03-.53-1.55-1.79-1.75-1.79-1.75v-.82c.87-.58,2.62-1.21,4.03-1.21,3.3,0,2.91,2.33,2.86,7.13l-.05,7.57c-.05,4.66.68,6.55,3.78,6.6,3.54,0,5.63-1.94,6.69-3.2.05-1.99.15-4.56.15-9.7,0-2.33-.39-4.27-.63-4.8-.48-1.07-1.02-1.45-1.79-1.65v-.83s1.99-1.12,3.74-1.12c2.77,0,3.06.78,3.06,4.95v12.23c0,6.07,2.52,5.73,3.98,5.87v.87c-.44.29-2.62,1.21-4.32,1.21-3.2,0-3.88-2.86-3.98-5.43-1.5,2.43-4.56,5.43-9.32,5.43-3.4,0-5.72-2.82-5.77-5.77,0,0,0-2.09.1-6.55"/>
      <path class="cls-1" d="m209.26,73.25c0-2.91.19-9.8.19-16.55,0-5.68-2.09-5.87-2.38-5.87v-.87c.87-.53,2.33-1.21,4.32-1.21s2.33,1.16,2.33,2.77c0,.39-.05.82-.15,1.31l-.24,2.13c.15-.34,3.06-6.31,7.52-6.31,2.18,0,3.35,1.31,3.35,2.91,0,1.16-.82,2.48-2.48,2.48-.29,0-.58,0-.92-.1-.53-1.36-1.5-1.65-2.23-1.65-3.83,0-4.95,7.38-4.95,10.67,0,1.7,0,8.59.49,10.29h-4.85Z"/>
      <path class="cls-1" d="m238.84,65.93c.39,1.12.92,2.38,1.31,3.15.05-.34.53-1.94,1.02-3.25l3.83-10.09c.34-.82.68-1.99.68-3.06,0-.78-.24-1.5-.83-1.84v-.87c.63-.58,2.14-1.21,3.49-1.21,1.26,0,1.65.68,1.65,1.65,0,1.31-.78,3.06-1.21,4.12l-9.9,23.77c-1.84,4.51-3.11,7.96-7.71,7.96-2.86,0-4.08-1.84-4.08-4.17,0-.34,0-.68.05-1.02.34.83,2.08,1.31,3.44,1.31,2.09,0,4.08-.48,5-2.72l2.23-5.34c.29-.68.63-1.12.63-1.12-1.21-.34-2.43-1.46-2.77-2.57l-4.37-13.68c-1.7-5.39-4.27-6.07-4.51-6.11l-.05-.87c.78-.58,2.72-1.21,4.03-1.21,2.28,0,2.96,1.11,3.45,3.2.29,1.36,1.6,5.48,4.61,13.97"/>
      <polygon class="cls-1" points="93.84 84.79 93.84 95.16 98.92 95.16 98.92 96.39 92.51 96.39 92.51 84.79 93.84 84.79"/>
      <polygon class="cls-1" points="108.5 92.36 108.5 96.39 107.19 96.39 107.19 92.4 102.7 84.79 104.07 84.79 107.83 90.87 111.54 84.79 112.9 84.79 108.5 92.36"/>
      <polygon class="cls-1" points="119.43 84.79 126.38 94.22 126.38 84.79 127.69 84.79 127.69 96.39 126.33 96.39 119.38 86.98 119.38 96.39 118.05 96.39 118.05 84.79 119.43 84.79"/>
      <path class="cls-1" d="m139.5,85.97c-2.62,0-4.72,2.04-4.72,4.6s2.1,4.62,4.72,4.62c1.28,0,2.52-.53,3.43-1.39l.81.88c-1.14,1.07-2.7,1.75-4.31,1.75-3.35,0-6-2.58-6-5.86s2.68-5.81,6.05-5.81c1.59,0,3.13.64,4.24,1.69l-.8.96c-.89-.9-2.15-1.44-3.43-1.44"/>
      <polygon class="cls-1" points="150.76 84.79 150.76 90.04 157.75 90.04 157.75 84.79 159.08 84.79 159.08 96.39 157.75 96.39 157.75 91.25 150.76 91.25 150.76 96.39 149.44 96.39 149.44 84.79 150.76 84.79"/>
      <path class="cls-1" d="m174.55,87.69c0,1.36-.81,2.34-2.15,2.62,1.67.25,2.65,1.34,2.65,2.93,0,1.97-1.56,3.15-4.19,3.15h-4.95v-11.59h4.89c2.34,0,3.76,1.08,3.76,2.9m-1.36.2c0-1.19-.91-1.87-2.47-1.87h-3.5v3.79h3.5c1.56,0,2.47-.7,2.47-1.92m.51,5.19c0-1.29-1.09-2.05-2.98-2.04h-3.5v4.12h3.5c1.89.02,2.98-.75,2.98-2.09"/>
      <path class="cls-1" d="m185.69,95.23c2.2,0,3.53-1.33,3.53-3.61v-6.82h1.33v6.82c0,3.03-1.82,4.82-4.85,4.82s-4.89-1.79-4.89-4.82v-6.82h1.33v6.82c0,2.29,1.36,3.61,3.56,3.61"/>
      <path class="cls-1" d="m204.69,96.39l-2.44-3.71c-.23.02-.48.03-.75.03h-3.08v3.68h-1.33v-11.59h4.41c2.9,0,4.57,1.42,4.57,3.89,0,1.91-.94,3.21-2.62,3.74l2.73,3.96h-1.51Zm-3.18-4.9c2.1,0,3.3-.95,3.3-2.77s-1.19-2.7-3.3-2.7h-3.08v5.47h3.08Z"/>
      <path class="cls-1" d="m220.48,90.72h1.18v4.21c-1.14.91-2.75,1.51-4.31,1.51-3.36,0-6.05-2.58-6.05-5.85s2.7-5.83,6.11-5.83c1.61,0,3.16.61,4.27,1.59l-.76.96c-.94-.85-2.22-1.34-3.51-1.34-2.65,0-4.77,2.05-4.77,4.62s2.14,4.64,4.79,4.64c1.04,0,2.15-.37,3.05-.98v-3.53Z"/>
      <path class="cls-1" d="m60,117.8c.16-.65.27-1.35.27-1.33l1.68-8.88c.08-.43.18-.9.18-1.35,0-.35-.06-.7-.23-.98l.21-.33,4.36-.1c2.62,0,4.79,1.66,4.79,4.87,0,4.72-3.4,8.1-7.2,8.1h-4.07Zm9.1-7.38c0-2.6-1.45-4.5-3.58-4.5h-.14l-1.1.04c-.27,1.47-1.66,8.2-2.09,10.8h2.31c1.98,0,4.6-2.58,4.6-6.34"/>
      <path class="cls-1" d="m72.39,117.72c1.43-7.49,1.43-7.71,1.43-7.81.02-.49-.23-.71-.53-.71-.06,0-.1,0-.16.02l-.18-.31c.41-.49,1.29-1,2.07-1,.53,0,.74.41.72.92,0,.41-.37,1.7-.43,2.03-.16.8-.57,3.38-.92,5.46-.08.41-.12.78-.12,1.12,0,.12,0,.23-.02.35h-1.9l.02-.08Zm2.97-13.48c.55,0,1,.47,1,1.02-.02.55-.49,1.06-1.04,1.06s-1.02-.51-1-1.06c0-.55.47-1.02,1.04-1.02"/>
      <path class="cls-1" d="m81.01,107.88c1.47,0,2.5.63,2.5,1.55,0,.55-.43,1.1-1,1.1-.18,0-.35-.08-.53-.21.04-.18.06-.33.06-.51,0-.51-.23-.98-1.31-.98-.96,0-1.7.66-1.7,1.55,0,1.74,3.83,1.82,3.83,4.42,0,2.19-1.92,3.27-3.8,3.27-1.76,0-3.19-1.45-2.11-2.7.02.74,1.25,1.57,2.33,1.57.88,0,1.8-.39,1.8-1.58,0-1.53-3.58-1.7-3.58-4.32,0-1.7,1.58-3.13,3.5-3.13"/>
      <path class="cls-1" d="m88.29,116.57c1.08,0,2.21-.65,3.11-1.72.08,1.72-2.03,3.21-4.05,3.21-1.72,0-3.15-1.43-3.15-3.81,0-3.13,2.21-6.36,5.07-6.36,1.43,0,2.88.49,2.88,1.55,0,.8-.92,1.49-1.7.94,0-.72-.24-1.39-1.41-1.39-1.72,0-2.99,2.62-2.99,4.81,0,1.49.67,2.78,2.25,2.78"/>
      <path class="cls-1" d="m98.07,107.88c1.72,0,2.95,1.33,2.92,3.74-.04,3.33-2.27,6.44-5.32,6.44-2.54,0-2.94-2.31-2.92-3.78.06-3.7,2.43-6.4,5.32-6.4m-.82,1c-2.11,0-2.6,3.91-2.62,5.07-.04,1.84.53,3.15,1.68,3.15,1.39,0,2.76-2.15,2.78-5.09.04-1.88-.63-3.13-1.84-3.13"/>
      <path class="cls-1" d="m101.85,109.21l-.2-.33c.49-.47,1.25-.96,1.88-.96s.9.31.9,1.19c0,.55.25,2.31.78,5.73.08.45.19,1,.31,1.31,1.45-1.94,3.09-5.05,3.09-6.4,0-.57-.25-1.19-.86-1.33.2-.33.65-.43.98-.43.86,0,1.17.51,1.17,1.23,0,1.31-1.06,3.37-1.55,4.23-.64,1.12-1.45,2.29-2.27,3.46l-.76,1.41-.55-.18c-.82-.16-1.02-1-1.04-1.41l-.76-5.62c-.29-2.25-1.12-1.92-1.14-1.92"/>
      <path class="cls-1" d="m110.22,114.18c.08-3.52,2.58-6.3,4.97-6.3,1.76,0,2.58.84,2.56,2.07-.04,2.09-2.6,3.32-5.32,3.32h-.39c-.02.16-.04.33-.04.51-.02,1.29.64,2.78,2.13,2.78,1.08,0,2.31-.65,3.21-1.72.08,1.72-2.03,3.21-4.05,3.21-1.74,0-3.11-1.43-3.07-3.87m1.92-1.6c1.66-.14,3.72-.51,3.76-2.56.02-.45-.18-1.04-.98-1.04-1.45,0-2.52,2.07-2.78,3.6"/>
      <path class="cls-1" d="m118.69,117.8c.23-1.17.8-3.95,1.33-6.67.1-.47.12-.84.12-1.14,0-.68-.33-.78-.53-.78-.06,0-.12.02-.14.02l-.18-.31c.35-.47,1.33-1,1.94-1,.67,0,.86.39.86.84,0,.29-.08.61-.16.86,0,0-.37.84-.49,1.58.29-.76,1.74-3.37,3.64-3.37.82,0,1.1.45,1.1.9,0,.72-.64,1.17-1.25,1.35-.12-.49-.47-.68-.84-.68-1.84,0-2.84,3.76-3.09,5.11-.16.82-.41,2.46-.41,3.29h-1.9Z"/>
      <path class="cls-1" d="m130.66,117.8c.16-.65.27-1.33,2.03-10.41.27-1.55.06-1.82-.1-2.15l.18-.33s.67-.25,1.39-.25c.35,0,.71.06,1.04.24-.49,2.19-1.15,5.07-1.64,7.75-.27,1.37-.59,3.01-.74,4.09h2.21c1.14,0,1.98-.45,2.21-1.04h.35c.2.33-.14,1.7-.63,2.11h-6.3Z"/>
      <path class="cls-1" d="m138.51,117.72c1.43-7.49,1.43-7.71,1.43-7.81.02-.49-.23-.71-.53-.71-.06,0-.1,0-.16.02l-.18-.31c.41-.49,1.29-1,2.07-1,.53,0,.74.41.72.92,0,.41-.37,1.7-.43,2.03-.16.8-.57,3.38-.92,5.46-.08.41-.12.78-.12,1.12,0,.12,0,.23-.02.35h-1.9l.02-.08Zm2.97-13.48c.55,0,1,.47,1,1.02-.02.55-.49,1.06-1.04,1.06s-1.02-.51-1-1.06c0-.55.47-1.02,1.04-1.02"/>
      <path class="cls-1" d="m144.69,110.99c.06-.27.1-.59.1-.9,0-.55-.14-1.06-.64-1.29l.2-.59c.45-.04,1-.31,1.23-1.17.9-3.15,2.82-4.01,4.09-4.01.88,0,1.6.45,1.6,1.19,0,.55-.39.86-.86.88-.18,0-.37-.04-.55-.12,0-.41-.29-.74-.84-.74-1.04,0-1.68.78-2.07,3.48-.02.16-.08.37-.12.45h2.29c.55,0,.68-.21.71-.21-.04,1.23-.96,1.39-1.66,1.39-.25,0-1.31-.02-1.45-.02-.49,2.27-1.35,7.65-1.35,7.65-.06.33-.04.61-.04.82h-1.9c.04-.33.08-.49.08-.49l1.19-6.32Z"/>
      <path class="cls-1" d="m148.88,114.18c.08-3.52,2.58-6.3,4.97-6.3,1.76,0,2.58.84,2.56,2.07-.04,2.09-2.6,3.32-5.32,3.32h-.39c-.02.16-.04.33-.04.51-.02,1.29.64,2.78,2.13,2.78,1.08,0,2.31-.65,3.21-1.72.08,1.72-2.03,3.21-4.05,3.21-1.74,0-3.11-1.43-3.07-3.87m1.92-1.6c1.66-.14,3.72-.51,3.76-2.56.02-.45-.18-1.04-.98-1.04-1.45,0-2.52,2.07-2.78,3.6"/>
      <path class="cls-1" d="m161.98,117.8l.06-.31c.25-1.27,2.01-10.09,2.01-11.29,0-.41-.06-.74-.18-.94l.2-.33c3.54-.1,3.6-.1,3.68-.1,1.7,0,3.58.8,3.58,3.15s-1.54,3.95-3.58,4.62c.43.24,3.07,4.79,3.52,5.2h-2.47c-.47-1.43-2-3.48-2.95-4.89-.35,0-.67-.04-1-.12-.35,1.98-.74,4.4-.78,5.01h-2.09Zm7.55-9.51c0-1.82-1.21-2.39-2.27-2.39l-1.04.04c-.21.76-.94,4.19-1.17,5.81.25.14.55.18,1.17.18,1.82,0,3.31-1.45,3.31-3.64"/>
      <path class="cls-1" d="m172.6,114.18c.08-3.52,2.58-6.3,4.97-6.3,1.76,0,2.58.84,2.56,2.07-.04,2.09-2.6,3.32-5.32,3.32h-.39c-.02.16-.04.33-.04.51-.02,1.29.64,2.78,2.13,2.78,1.08,0,2.31-.65,3.21-1.72.08,1.72-2.03,3.21-4.05,3.21-1.74,0-3.11-1.43-3.07-3.87m1.92-1.6c1.66-.14,3.72-.51,3.76-2.56.02-.45-.18-1.04-.98-1.04-1.45,0-2.52,2.07-2.78,3.6"/>
      <path class="cls-1" d="m182.68,110.99c.06-.27.1-.59.1-.9,0-.55-.14-1.06-.64-1.29l.2-.59c.45-.04,1-.31,1.23-1.17.9-3.15,2.82-4.01,4.09-4.01.88,0,1.6.45,1.6,1.19,0,.55-.39.86-.86.88-.18,0-.37-.04-.55-.12,0-.41-.29-.74-.84-.74-1.04,0-1.68.78-2.07,3.48-.02.16-.08.37-.12.45h2.29c.55,0,.68-.21.71-.21-.04,1.23-.96,1.39-1.66,1.39-.25,0-1.31-.02-1.45-.02-.49,2.27-1.35,7.65-1.35,7.65-.06.33-.04.61-.04.82h-1.9c.04-.33.08-.49.08-.49l1.19-6.32Z"/>
      <path class="cls-1" d="m186.85,117.8c.23-1.17.8-3.95,1.33-6.67.1-.47.12-.84.12-1.14,0-.68-.33-.78-.53-.78-.06,0-.12.02-.14.02l-.18-.31c.35-.47,1.33-1,1.94-1,.67,0,.86.39.86.84,0,.29-.08.61-.16.86,0,0-.37.84-.49,1.58.29-.76,1.74-3.37,3.64-3.37.82,0,1.1.45,1.1.9,0,.72-.64,1.17-1.25,1.35-.12-.49-.47-.68-.84-.68-1.84,0-2.84,3.76-3.09,5.11-.16.82-.41,2.46-.41,3.29h-1.9Z"/>
      <path class="cls-1" d="m193.95,114.18c.08-3.52,2.58-6.3,4.97-6.3,1.76,0,2.58.84,2.56,2.07-.04,2.09-2.6,3.32-5.32,3.32h-.39c-.02.16-.04.33-.04.51-.02,1.29.64,2.78,2.13,2.78,1.08,0,2.31-.65,3.21-1.72.08,1.72-2.03,3.21-4.05,3.21-1.74,0-3.11-1.43-3.07-3.87m1.92-1.6c1.66-.14,3.72-.51,3.76-2.56.02-.45-.18-1.04-.98-1.04-1.45,0-2.52,2.07-2.78,3.6"/>
      <path class="cls-1" d="m206.47,107.88c1.47,0,2.5.63,2.5,1.55,0,.55-.43,1.1-1,1.1-.18,0-.35-.08-.53-.21.04-.18.06-.33.06-.51,0-.51-.23-.98-1.31-.98-.96,0-1.7.66-1.7,1.55,0,1.74,3.83,1.82,3.83,4.42,0,2.19-1.92,3.27-3.8,3.27-1.76,0-3.19-1.45-2.11-2.7.02.74,1.25,1.57,2.33,1.57.88,0,1.8-.39,1.8-1.58,0-1.53-3.58-1.7-3.58-4.32,0-1.7,1.58-3.13,3.5-3.13"/>
      <path class="cls-1" d="m213.98,103.91c0,.96-.86,3.85-1.35,6.53.7-1,2.41-2.6,4.09-2.6.84,0,1.68.63,1.68,1.88,0,1.11-1.29,6.06-1.27,8.08h-1.86c0-.28.08-.59.14-.94,1.02-5.17.98-5.4,1.02-5.71.02-.21.04-.41.04-.61,0-.74-.25-1.15-.88-1.15-1.14,0-2.43,1-3.09,1.9-.41,2.33-.94,5.83-.96,6.32v.2h-1.88l.04-.29c1.15-5.85,2.27-12.13,2.27-12.54,0-.62-.18-1.04-.64-1.1l.1-.35s.72-.49,1.64-.49c.68,0,.92.29.92.88"/>
      <path class="cls-1" d="m219.69,114.18c.08-3.52,2.58-6.3,4.97-6.3,1.76,0,2.58.84,2.56,2.07-.04,2.09-2.6,3.32-5.32,3.32h-.39c-.02.16-.04.33-.04.51-.02,1.29.64,2.78,2.13,2.78,1.08,0,2.31-.65,3.21-1.72.08,1.72-2.03,3.21-4.05,3.21-1.74,0-3.11-1.43-3.07-3.87m1.92-1.6c1.66-.14,3.72-.51,3.76-2.56.02-.45-.18-1.04-.98-1.04-1.45,0-2.52,2.07-2.78,3.6"/>
      <path class="cls-1" d="m233.58,116.47c0-.21.02-.43.04-.63v-.08c-1,1.41-2.31,2.29-3.46,2.29-1.27,0-2.09-1.08-2.09-3.35,0-2.92,1.82-6.83,5.38-6.83.51,0,1.33.16,1.62.29l.45-2.54c.14-.63.14-1.74-.57-1.76l.08-.35s.72-.49,1.62-.49c1.15,0,1.04.92.88,1.78-.06.39-.88,4.09-1.04,4.89-.51,2.66-1,5.2-1,6.18,0,.78.31.98.68.98.18,0,.35-.04.51-.08l.14.35c-.45.33-1.41.92-2.11.92-.92,0-1.13-.82-1.13-1.58m1.31-7.34s-.51-.24-1.64-.24c-2.54,0-3.38,3.33-3.38,5.63,0,1.25.25,2.21,1.11,2.21.72,0,2-.9,2.82-1.92.18-.96.47-2.29.53-2.64l.57-3.05Z"/>
      <path class="cls-1" d="m239,118.05c-.59,0-1.06-.47-1.06-1.06s.47-1.04,1.06-1.04,1.04.47,1.04,1.04-.47,1.06-1.04,1.06"/>
    </g>
  </g>
</svg>